<svg width="59" height="47" viewBox="0 0 59 47" fill="none" xmlns="http://www.w3.org/2000/svg">
<mask id="mask0_0_519" style="mask-type:luminance" maskUnits="userSpaceOnUse" x="0" y="0" width="59" height="47">
<path d="M58.0177 0.883789H0.984375V46.1171H58.0177V0.883789Z" fill="white"/>
</mask>
<g mask="url(#mask0_0_519)">
<path d="M13.0662 27.8891C13.2096 24.5936 14.2342 21.4011 16.0289 18.6577C17.8237 15.9143 20.32 13.7247 23.2473 12.3265C26.1248 10.9103 29.4001 10.5783 32.4943 11.3892C35.6643 12.3357 38.476 14.247 40.5537 16.8676C42.942 19.7561 44.3036 23.3839 44.4171 27.1618C44.4171 27.4404 44.5256 27.7076 44.7186 27.9046C44.9116 28.1016 45.1734 28.2123 45.4463 28.2123C45.7193 28.2123 45.9811 28.1016 46.1741 27.9046C46.3671 27.7076 46.4755 27.4404 46.4755 27.1618C46.3391 23.3731 45.1175 19.7082 42.9618 16.6206C40.8062 13.5329 37.811 11.1579 34.3468 9.78928C27.3325 7.10658 19.6214 10.5165 15.1879 16.2535C12.611 19.5571 11.1452 23.6201 11.0078 27.8406C11.0078 28.1192 11.1162 28.3863 11.3093 28.5833C11.5023 28.7803 11.764 28.891 12.037 28.891C12.31 28.891 12.5717 28.7803 12.7648 28.5833C12.9578 28.3863 13.0662 28.1192 13.0662 27.8406V27.8891Z" fill="#3B3B3B"/>
<path d="M28.4414 1.93419V5.73189C28.4455 6.00919 28.5552 6.27399 28.7474 6.47009C28.9395 6.66619 29.1989 6.77819 29.4706 6.78239C29.741 6.77429 29.9982 6.66099 30.1895 6.46569C30.3809 6.27049 30.4918 6.00799 30.4998 5.73189V1.93419C30.4957 1.65689 30.386 1.39219 30.1938 1.19609C30.0017 0.99999 29.7423 0.887989 29.4706 0.883789C29.2002 0.891889 28.943 1.00519 28.7517 1.20049C28.5604 1.39569 28.4494 1.65819 28.4414 1.93419Z" fill="#3B3B3B"/>
<path d="M8.63041 13.5947L11.6389 15.9057C11.8804 16.0418 12.1643 16.0766 12.4306 16.0026C12.6907 15.9298 12.9124 15.7557 13.0481 15.5178C13.1868 15.2735 13.2266 14.9836 13.1589 14.7098C13.0666 14.4555 12.901 14.2358 12.6839 14.0795L9.65961 11.7847C9.42031 11.6431 9.13621 11.6025 8.86791 11.6716C8.61331 11.7554 8.39511 11.9267 8.25041 12.1564C8.18101 12.2772 8.13671 12.4113 8.12041 12.5503C8.10401 12.6893 8.11601 12.8303 8.15541 12.9644C8.22671 13.2299 8.39731 13.4563 8.63041 13.5947Z" fill="#3B3B3B"/>
<path d="M47.9019 11.7847L44.8777 14.0795C44.6558 14.2269 44.4929 14.4505 44.4185 14.7098C44.3781 14.8437 44.3656 14.9849 44.382 15.1241C44.3984 15.2633 44.4432 15.3974 44.5135 15.5178C44.6491 15.7557 44.8709 15.9298 45.131 16.0026C45.2623 16.0439 45.4006 16.0566 45.5369 16.0399C45.6733 16.0232 45.8047 15.9774 45.9227 15.9057L48.947 13.5947C49.1753 13.4544 49.3402 13.228 49.4061 12.9644C49.4456 12.8303 49.4575 12.6893 49.4412 12.5503C49.4248 12.4113 49.3806 12.2772 49.3111 12.1564C49.1755 11.9185 48.9537 11.7444 48.6936 11.6716C48.4254 11.6025 48.1413 11.6431 47.9019 11.7847Z" fill="#3B3B3B"/>
<path d="M2.55555 32.8507C5.7223 30.5236 8.9999 28.4066 13.0692 29.457C14.8901 29.9257 16.6635 30.6529 18.4685 31.2023C20.2213 31.7378 22.0029 32.1695 23.8045 32.4952C27.3106 33.1917 30.9044 33.3008 34.4448 32.8184C36.141 32.5715 37.8039 32.1269 39.4008 31.4932C41.1108 30.7822 42.5676 29.764 44.2459 28.9075C45.1194 28.3819 46.1348 28.1554 47.1435 28.2611C48.1337 28.5064 49.0796 28.91 49.9461 29.457C52.0573 30.6098 54.1685 31.7464 56.2796 32.8669C57.4513 33.4971 58.4805 31.6872 57.3088 31.0569L51.4661 27.9217C49.9373 26.8441 48.1442 26.2229 46.2885 26.1279C44.4559 26.4299 42.7164 27.16 41.2058 28.2611C39.6067 29.2042 37.8849 29.9115 36.0915 30.362C32.3903 31.2019 28.5606 31.2679 24.8337 30.5559C22.9202 30.2289 21.0274 29.7864 19.1652 29.2308C17.2968 28.6651 15.4759 27.9056 13.5917 27.4208C11.509 26.8296 9.2989 26.9029 7.2582 27.6309C5.1773 28.4836 3.22186 29.6257 1.44718 31.0246C0.370491 31.8003 1.44718 33.6264 2.47638 32.8507H2.55555Z" fill="#3B3B3B"/>
<path d="M2.72352 39.1808C5.8903 36.8537 9.1679 34.7366 13.2372 35.7871C15.058 36.2557 16.8314 36.983 18.6365 37.5324C20.3915 38.0638 22.1726 38.5008 23.9725 38.8414C27.4856 39.5249 31.0833 39.6286 34.6286 39.1485C36.3208 38.9071 37.979 38.4623 39.5688 37.8233C41.2788 37.1122 42.7355 36.0941 44.4297 35.2376C45.2987 34.7154 46.308 34.489 47.3115 34.5912C48.2797 34.8428 49.2037 35.2463 50.0507 35.7871L56.3843 39.2131C57.556 39.8434 58.601 38.0172 57.4135 37.387L51.6341 34.2518C50.103 33.1787 48.3113 32.558 46.4565 32.458C44.6239 32.76 42.8844 33.49 41.3738 34.5912C39.776 35.537 38.0538 36.2445 36.2595 36.6921C32.5583 37.529 28.7304 37.6004 25.0017 36.9022C23.0878 36.5698 21.195 36.1219 19.3332 35.5608C17.4648 34.9952 15.6439 34.2357 13.7597 33.7508C11.676 33.1678 9.4683 33.2411 7.4262 33.9609C5.3453 34.8137 3.38983 35.9557 1.61515 37.3546C0.53846 38.1465 1.61515 39.9565 2.64435 39.1808H2.72352Z" fill="#3B3B3B"/>
<path d="M2.55555 45.8477C5.7223 43.5367 8.9999 41.4035 13.0534 42.454C14.8901 42.9226 16.6635 43.666 18.4685 44.1993C20.221 44.7402 22.0026 45.1773 23.8045 45.5083C27.3123 46.1918 30.9048 46.2955 34.4448 45.8154C36.1143 45.5804 37.7511 45.1465 39.3216 44.5225C41.0317 43.8276 42.4884 42.7933 44.1668 41.9368C45.0442 41.4216 46.0563 41.1958 47.0644 41.2904C48.0508 41.5397 48.9917 41.9489 49.8511 42.5025L56.1846 45.9123C57.3563 46.5426 58.3855 44.7326 57.2138 44.1024L51.3711 40.951C49.8353 39.8876 48.0463 39.2678 46.1935 39.1572C44.3719 39.464 42.6438 40.1938 41.1425 41.2904C39.5434 42.2335 37.8216 42.9408 36.0282 43.3913C32.327 44.2282 28.499 44.2996 24.7704 43.6014C22.8565 43.2691 20.9637 42.8212 19.1019 42.2601C17.2335 41.7106 15.4126 40.951 13.5284 40.4662C11.4473 39.8698 9.2372 39.9375 7.1949 40.6602C5.1343 41.5076 3.1998 42.6444 1.44718 44.0377C0.370491 44.8134 1.44718 46.6396 2.47638 45.8477H2.55555Z" fill="#3B3B3B"/>
</g>
</svg>
