<svg width="18" height="18" viewBox="0 0 18 18" fill="none" xmlns="http://www.w3.org/2000/svg">
<g clip-path="url(#clip0_0_245)">
<path d="M6.3 17.1C7.29411 17.1 8.1 16.2941 8.1 15.3C8.1 14.3059 7.29411 13.5 6.3 13.5C5.30589 13.5 4.5 14.3059 4.5 15.3C4.5 16.2941 5.30589 17.1 6.3 17.1Z" fill="#374957"/>
<path d="M13.5 17.1C14.4941 17.1 15.3 16.2941 15.3 15.3C15.3 14.3059 14.4941 13.5 13.5 13.5C12.5059 13.5 11.7 14.3059 11.7 15.3C11.7 16.2941 12.5059 17.1 13.5 17.1Z" fill="#374957"/>
<path d="M18 3.96002V4.50002L16.38 10.17C16.29 10.53 15.93 10.8 15.48 10.8H6.03C5.67 10.8 5.31 10.53 5.13 10.17L2.97 3.51002C2.79 2.97002 2.34 2.70002 1.89 2.70002H0.36C0.18 2.70002 0 2.52002 0 2.34002V1.26002C0 1.08002 0.18 0.900024 0.36 0.900024H2.61C3.51 0.900024 4.23 1.44002 4.5 2.34002L4.59 2.70002L6.66 8.82002C6.66 8.91002 6.84 9.00002 6.93 9.00002H14.67C14.76 9.00002 14.94 8.91002 14.94 8.82002L16.11 4.86002C16.11 4.68002 15.93 4.50002 15.75 4.50002H8.46C8.28 4.50002 8.1 4.32002 8.1 4.14002V3.06002C8.1 2.88002 8.28 2.70002 8.46 2.70002H16.74C17.46 2.70002 18 3.24002 18 3.96002Z" fill="#374957"/>
</g>
<defs>
<clipPath id="clip0_0_245">
<rect width="18" height="18" fill="white"/>
</clipPath>
</defs>
</svg>
