<svg width="87" height="82" viewBox="0 0 87 82" fill="none" xmlns="http://www.w3.org/2000/svg">
<path d="M41.5414 31.1607V65.6007M17.4009 65.6007V31.1607H65.6821V65.6007H17.4009Z" stroke="#BEAF7C" stroke-width="1.3" stroke-miterlimit="10" stroke-linecap="round" stroke-linejoin="round"/>
<path d="M76.0271 15.2286V65.5999H7.05405V22.9599V15.2286H76.0271Z" stroke="#BEAF7C" stroke-width="1.3" stroke-miterlimit="10" stroke-linecap="round" stroke-linejoin="round"/>
<path d="M48.4378 45.9202C47.9805 45.9202 47.542 46.093 47.2185 46.4005C46.8952 46.7081 46.7135 47.1253 46.7135 47.5602C46.7135 47.9952 46.8952 48.4123 47.2185 48.7199C47.542 49.0274 47.9805 49.2002 48.4378 49.2002C48.8952 49.2002 49.3337 49.0274 49.6571 48.7199C49.9804 48.4123 50.1622 47.9952 50.1622 47.5602C50.1622 47.1253 49.9804 46.7081 49.6571 46.4005C49.3337 46.093 48.8952 45.9202 48.4378 45.9202ZM34.6433 45.9202C34.1859 45.9202 33.7473 46.093 33.424 46.4005C33.1006 46.7081 32.9189 47.1253 32.9189 47.5602C32.9189 47.9952 33.1006 48.4123 33.424 48.7199C33.7473 49.0274 34.1859 49.2002 34.6433 49.2002C35.1006 49.2002 35.5391 49.0274 35.8626 48.7199C36.1859 48.4123 36.3675 47.9952 36.3675 47.5602C36.3675 47.1253 36.1859 46.7081 35.8626 46.4005C35.5391 46.093 35.1006 45.9202 34.6433 45.9202Z" fill="#BEAF7C"/>
</svg>
