<svg width="28" height="28" viewBox="0 0 28 28" fill="none" xmlns="http://www.w3.org/2000/svg">
<path d="M18.1999 0.699998V0.642598C16.8741 0.226099 15.4636 0 14 0C6.26778 0 0 6.26778 0 14C0 14.4725 0.0251998 14.9394 0.0706996 15.3999H18.1999V0.699998Z" fill="#3F51B5"/>
<path d="M18.1997 4.90029H24.6257C23.9558 4.11909 23.1991 3.41839 22.3738 2.80029H18.1997V4.90029Z" fill="white"/>
<path d="M27.9293 15.3999H18.2H0.0708008C0.142201 16.1195 0.2829 16.8167 0.4593 17.4999H27.5415C27.7172 16.8167 27.8579 16.1195 27.9293 15.3999Z" fill="white"/>
<path d="M23.9898 23.7998H4.0105C4.7994 24.6041 5.68909 25.3041 6.65159 25.8998H21.3487C22.3112 25.3041 23.2009 24.6041 23.9898 23.7998Z" fill="white"/>
<path d="M26.8275 19.5996H1.17261C1.49391 20.3346 1.8761 21.0367 2.3136 21.6996H25.6865C26.124 21.0367 26.5055 20.3346 26.8275 19.5996Z" fill="white"/>
<path d="M18.1997 9.09999H27.1009C26.8272 8.3692 26.4982 7.6671 26.1118 7H18.1997V9.09999Z" fill="white"/>
<path d="M18.1997 13.2999H27.9647C27.929 12.5859 27.8576 11.8817 27.719 11.2H18.1997V13.2999Z" fill="white"/>
<path d="M18.1997 2.79994H22.3745C21.1684 1.89695 19.8188 1.17875 18.3558 0.699951H18.1997V2.79994Z" fill="#F44336"/>
<path d="M18.1997 7.00014H26.1118C25.6799 6.25394 25.1836 5.55114 24.6264 4.90015H18.1997V7.00014Z" fill="#F44336"/>
<path d="M18.1997 11.1996H27.7183C27.5713 10.4758 27.3543 9.77861 27.1002 9.09961H18.1997V11.1996Z" fill="#F44336"/>
<path d="M18.1997 15.4H27.929C27.9745 14.9394 27.9997 14.4725 27.9997 14C27.9997 13.7634 27.9759 13.5331 27.9647 13.3H18.1997V15.4Z" fill="#F44336"/>
<path d="M27.5405 17.5H0.458984C0.645184 18.2231 0.878283 18.9273 1.17298 19.6H26.8272C27.1212 18.9273 27.3543 18.2231 27.5405 17.5Z" fill="#F44336"/>
<path d="M25.6862 21.7H2.31323C2.81093 22.4545 3.37933 23.1573 4.01003 23.7999H23.9901C24.6201 23.1573 25.1885 22.4545 25.6862 21.7Z" fill="#F44336"/>
<path d="M6.65137 25.9001C8.78916 27.2231 11.3008 28.0001 13.9999 28.0001C16.6991 28.0001 19.2107 27.2231 21.3485 25.9001H6.65137Z" fill="#F44336"/>
<path d="M4.3747 6.30005L4.7002 6.99165L5.4247 7.10085L4.8997 7.63984L5.0257 8.40004L4.3747 8.04164L3.72371 8.40004L3.84971 7.63984L3.32471 7.10085L4.0492 6.99165L4.3747 6.30005Z" fill="white"/>
<path d="M7.175 6.30005L7.5005 6.99165L8.22499 7.10085L7.69999 7.63984L7.82599 8.40004L7.175 8.04164L6.524 8.40004L6.65 7.63984L6.125 7.10085L6.8495 6.99165L7.175 6.30005Z" fill="white"/>
<path d="M1.57514 8.04162L2.22614 8.40001L2.10014 7.63982L2.62513 7.10082L1.90064 6.99162L1.89784 6.98462C1.66684 7.38222 1.45474 7.79172 1.26294 8.21312L1.57514 8.04162Z" fill="white"/>
<path d="M9.97529 6.30005L10.3008 6.99165L11.0253 7.10085L10.5003 7.63984L10.6263 8.40004L9.97529 8.04164L9.32429 8.40004L9.45029 7.63984L8.92529 7.10085L9.64979 6.99165L9.97529 6.30005Z" fill="white"/>
<path d="M12.7746 6.30005L13.1001 6.99165L13.8246 7.10085L13.2996 7.63984L13.4256 8.40004L12.7746 8.04164L12.1236 8.40004L12.2496 7.63984L11.7246 7.10085L12.4491 6.99165L12.7746 6.30005Z" fill="white"/>
<path d="M15.3999 6.30005L15.7253 6.99165L16.4498 7.10085L15.9248 7.63984L16.0508 8.40004L15.3999 8.04164L14.7489 8.40004L14.8749 7.63984L14.3499 7.10085L15.0744 6.99165L15.3999 6.30005Z" fill="white"/>
<path d="M4.3747 11.9001L4.7002 12.5917L5.4247 12.7009L4.8997 13.2399L5.0257 14.0001L4.3747 13.6417L3.72371 14.0001L3.84971 13.2399L3.32471 12.7009L4.0492 12.5917L4.3747 11.9001Z" fill="white"/>
<path d="M7.175 11.9001L7.5005 12.5917L8.22499 12.7009L7.69999 13.2399L7.82599 14.0001L7.175 13.6417L6.524 14.0001L6.65 13.2399L6.125 12.7009L6.8495 12.5917L7.175 11.9001Z" fill="white"/>
<path d="M9.97529 11.9001L10.3008 12.5917L11.0253 12.7009L10.5003 13.2399L10.6263 14.0001L9.97529 13.6417L9.32429 14.0001L9.45029 13.2399L8.92529 12.7009L9.64979 12.5917L9.97529 11.9001Z" fill="white"/>
<path d="M1.57514 11.9001L1.90064 12.5917L2.62514 12.7009L2.10014 13.2399L2.22614 14.0001L1.57514 13.6417L0.924145 14.0001L1.05014 13.2399L0.525146 12.7009L1.24964 12.5917L1.57514 11.9001Z" fill="white"/>
<path d="M12.7746 11.9001L13.1001 12.5917L13.8246 12.7009L13.2996 13.2399L13.4256 14.0001L12.7746 13.6417L12.1236 14.0001L12.2496 13.2399L11.7246 12.7009L12.4491 12.5917L12.7746 11.9001Z" fill="white"/>
<path d="M15.3999 11.9001L15.7253 12.5917L16.4498 12.7009L15.9248 13.2399L16.0508 14.0001L15.3999 13.6417L14.7489 14.0001L14.8749 13.2399L14.3499 12.7009L15.0744 12.5917L15.3999 11.9001Z" fill="white"/>
<path d="M5.07514 9.09961L5.40064 9.79121L6.12514 9.90041L5.60014 10.4394L5.72614 11.1996L5.07514 10.8412L4.42414 11.1996L4.55014 10.4394L4.02515 9.90041L4.74964 9.79121L5.07514 9.09961Z" fill="white"/>
<path d="M7.8747 9.09961L8.2002 9.79121L8.9247 9.90041L8.3997 10.4394L8.5257 11.1996L7.8747 10.8412L7.22371 11.1996L7.34971 10.4394L6.82471 9.90041L7.5492 9.79121L7.8747 9.09961Z" fill="white"/>
<path d="M2.27485 9.09961L2.60035 9.79121L3.32485 9.90041L2.79985 10.4394L2.92585 11.1996L2.27485 10.8412L1.62385 11.1996L1.74985 10.4394L1.22485 9.90041L1.94935 9.79121L2.27485 9.09961Z" fill="white"/>
<path d="M10.675 9.09961L11.0005 9.79121L11.725 9.90041L11.2 10.4394L11.326 11.1996L10.675 10.8412L10.024 11.1996L10.15 10.4394L9.625 9.90041L10.3495 9.79121L10.675 9.09961Z" fill="white"/>
<path d="M13.475 9.09961L13.8005 9.79121L14.525 9.90041L14 10.4394L14.126 11.1996L13.475 10.8412L12.824 11.1996L12.95 10.4394L12.425 9.90041L13.1495 9.79121L13.475 9.09961Z" fill="white"/>
<path d="M16.1 9.09961L16.4255 9.79121L17.15 9.90041L16.625 10.4394L16.751 11.1996L16.1 10.8412L15.449 11.1996L15.575 10.4394L15.05 9.90041L15.7745 9.79121L16.1 9.09961Z" fill="white"/>
<path d="M5.07514 3.5L5.40064 4.1916L6.12514 4.3008L5.60014 4.8398L5.72614 5.59999L5.07514 5.24159L4.42414 5.59999L4.55014 4.8398L4.02515 4.3008L4.74964 4.1916L5.07514 3.5Z" fill="white"/>
<path d="M7.8747 3.5L8.2002 4.1916L8.9247 4.3008L8.3997 4.8398L8.5257 5.59999L7.8747 5.24159L7.22371 5.59999L7.34971 4.8398L6.82471 4.3008L7.5492 4.1916L7.8747 3.5Z" fill="white"/>
<path d="M10.675 3.5L11.0005 4.1916L11.725 4.3008L11.2 4.8398L11.326 5.59999L10.675 5.24159L10.024 5.59999L10.15 4.8398L9.625 4.3008L10.3495 4.1916L10.675 3.5Z" fill="white"/>
<path d="M13.475 3.5L13.8005 4.1916L14.525 4.3008L14 4.8398L14.126 5.59999L13.475 5.24159L12.824 5.59999L12.95 4.8398L12.425 4.3008L13.1495 4.1916L13.475 3.5Z" fill="white"/>
<path d="M16.1 3.5L16.4255 4.1916L17.15 4.3008L16.625 4.8398L16.751 5.59999L16.1 5.24159L15.449 5.59999L15.575 4.8398L15.05 4.3008L15.7745 4.1916L16.1 3.5Z" fill="white"/>
<path d="M7.82592 2.80017L7.69992 2.03997L8.22492 1.50097L7.83922 1.44287C7.42692 1.64517 7.02722 1.86707 6.63873 2.10787L6.52393 2.80017L7.17492 2.44177L7.82592 2.80017Z" fill="white"/>
<path d="M9.97529 0.699951L10.3008 1.39155L11.0253 1.50075L10.5003 2.03975L10.6263 2.79994L9.97529 2.44155L9.32429 2.79994L9.45029 2.03975L8.92529 1.50075L9.64979 1.39155L9.97529 0.699951Z" fill="white"/>
<path d="M12.7746 0.699951L13.1001 1.39155L13.8246 1.50075L13.2996 2.03975L13.4256 2.79994L12.7746 2.44155L12.1236 2.79994L12.2496 2.03975L11.7246 1.50075L12.4491 1.39155L12.7746 0.699951Z" fill="white"/>
<path d="M15.3999 0.699951L15.7253 1.39155L16.4498 1.50145L15.9248 2.04045L16.0508 2.79994L15.3999 2.44155L14.7489 2.79994L14.8749 2.03975L14.3499 1.50075L15.0744 1.39155L15.3999 0.699951Z" fill="white"/>
</svg>
