<svg width="69" height="69" viewBox="0 0 69 69" fill="none" xmlns="http://www.w3.org/2000/svg">
<path d="M35.5779 35.358C35.8576 33.6797 35.4847 30.6959 36.6595 29.2599C37.721 28.255 38.7176 27.1836 39.6433 26.0524C40.1252 25.0332 40.5121 23.9721 40.7995 22.8821C41.3075 21.5215 42.1396 20.3052 43.2238 19.3389C43.7646 18.8726 44.4174 18.2572 44.1563 17.6045C44.0593 17.4111 43.9172 17.244 43.7419 17.1174C43.5666 16.9908 43.3631 16.9084 43.1492 16.8772C41.2844 16.411 40.0349 18.7421 38.6736 20.178C38.1704 20.5607 37.6263 20.886 37.0511 21.1478C36.3425 21.5394 35.3355 21.558 34.5895 21.8751C33.7761 22.2456 33.056 22.7935 32.4822 23.4789" stroke="#3B3B3B" stroke-width="0.75" stroke-miterlimit="5"/>
<path d="M37.9504 20.645V6.82644C37.9761 6.58274 37.9537 6.33633 37.8844 6.10132C37.8148 5.86629 37.6997 5.64726 37.5455 5.45675C37.3915 5.26625 37.2013 5.10798 36.9859 4.99102C36.7707 4.87405 36.5344 4.80067 36.2906 4.77509C36.0452 4.79838 35.8069 4.87008 35.5895 4.98604C35.372 5.10202 35.1796 5.25993 35.0235 5.45069C34.8674 5.64145 34.7508 5.86124 34.6801 6.09739C34.6095 6.33352 34.5865 6.58132 34.6123 6.82644V17.5494" stroke="#3B3B3B" stroke-width="0.75" stroke-miterlimit="5"/>
<path d="M34.5367 17.5535V4.94698C34.5625 4.70186 34.5393 4.45408 34.4689 4.21795C34.3982 3.9818 34.2814 3.76201 34.1254 3.57125C33.9693 3.38049 33.777 3.22258 33.5596 3.1066C33.3421 2.99064 33.1038 2.91894 32.8584 2.89563C32.6146 2.92123 32.3783 2.9946 32.163 3.11156C31.9476 3.22855 31.7575 3.3868 31.6033 3.57731C31.4491 3.76783 31.334 3.98686 31.2646 4.22188C31.1953 4.45689 31.1727 4.7033 31.1986 4.94698L31.1054 16.9194" stroke="#3B3B3B" stroke-width="0.75" stroke-miterlimit="5"/>
<path d="M31.1043 17.5544V6.12274C31.1067 5.65883 30.9361 5.21071 30.6256 4.86588C30.3152 4.52104 29.8876 4.30427 29.4259 4.25787C28.9677 4.30858 28.5446 4.52723 28.238 4.87162C27.9316 5.216 27.7634 5.66173 27.7662 6.12274L27.7289 17.4238" stroke="#3B3B3B" stroke-width="0.75" stroke-miterlimit="5"/>
<path d="M24.2615 23.0167V8.52667C24.2587 8.06564 24.4267 7.61992 24.7333 7.27553C25.0397 6.93115 25.463 6.71251 25.9212 6.6618C26.3794 6.71251 26.8026 6.93115 27.1092 7.27553C27.4158 7.61992 27.5838 8.06564 27.581 8.52667L27.6742 17.851" stroke="#3B3B3B" stroke-width="0.75" stroke-miterlimit="5"/>
<path d="M26.9081 36.2921C27.0023 34.0092 26.6541 31.7294 25.8825 29.5786C25.6214 28.9819 25.2671 28.4038 25.0246 27.7138C24.7706 27.0581 24.5892 26.3765 24.4838 25.681C24.3066 24.6153 24.2317 23.535 24.26 22.4548" stroke="#3B3B3B" stroke-width="0.75" stroke-miterlimit="5"/>
<path d="M54.6398 54.1798C54.9195 52.5014 54.5279 48.1749 55.7028 46.7203C56.7685 45.7261 57.7653 44.6607 58.6866 43.5314C59.1684 42.5124 59.5554 41.4511 59.8428 40.3611C60.3508 39.0005 61.183 37.7842 62.2671 36.8179C62.8079 36.3517 63.4606 35.7362 63.1995 35.0835C63.1042 34.8907 62.9623 34.7247 62.7863 34.6009C62.6104 34.4771 62.4062 34.3995 62.1925 34.3749C60.3276 33.9087 59.0782 36.2398 57.7168 37.6571C57.1975 38.0196 56.6412 38.3258 56.0571 38.5708C55.3298 38.9438 54.3228 38.9625 53.5768 39.2795C52.7636 39.65 52.0435 40.1981 51.4695 40.8833" stroke="#3B3B3B" stroke-width="0.75" stroke-miterlimit="5"/>
<path d="M56.9886 38.1208V24.3021C57.0145 24.0586 56.9921 23.8121 56.9226 23.5771C56.8532 23.3421 56.7381 23.123 56.5839 22.9326C56.4299 22.742 56.2397 22.5839 56.0243 22.4667C55.8089 22.3498 55.5726 22.2765 55.3289 22.2508C55.0836 22.2741 54.8453 22.3459 54.6279 22.4619C54.4102 22.5779 54.218 22.7357 54.0619 22.9264C53.9058 23.1172 53.789 23.3371 53.7185 23.5732C53.6479 23.8093 53.6247 24.0571 53.6505 24.3021V35.0251" stroke="#3B3B3B" stroke-width="0.75" stroke-miterlimit="5"/>
<path d="M53.5759 35.0252V22.4373C53.6016 22.1923 53.5787 21.9445 53.508 21.7084C53.4373 21.4723 53.3208 21.2524 53.1647 21.0616C53.0086 20.8709 52.8161 20.7131 52.5987 20.5971C52.3813 20.4811 52.1429 20.4093 51.8975 20.386C51.6538 20.4117 51.4175 20.485 51.2023 20.6019C50.9869 20.7191 50.7967 20.8772 50.6426 21.0678C50.4884 21.2582 50.3734 21.4773 50.304 21.7123C50.2344 21.9473 50.212 22.1938 50.2378 22.4373L50.1072 34.3911" stroke="#3B3B3B" stroke-width="0.75" stroke-miterlimit="5"/>
<path d="M50.1076 35.0229V23.5913C50.1104 23.1303 49.9424 22.6846 49.6358 22.3402C49.3294 21.9957 48.9061 21.7772 48.4479 21.7264C47.9863 21.7729 47.5585 21.9896 47.2482 22.3344C46.9379 22.6792 46.7671 23.1273 46.7695 23.5913L46.6763 34.9483" stroke="#3B3B3B" stroke-width="0.75" stroke-miterlimit="5"/>
<path d="M43.3035 40.563V26.0171C43.3007 25.5561 43.4687 25.1104 43.7753 24.7659C44.0819 24.4215 44.505 24.2029 44.9632 24.1522C45.4214 24.2029 45.8447 24.4215 46.1511 24.7659C46.4577 25.1104 46.6257 25.5561 46.6229 26.0171L46.7162 35.2482" stroke="#3B3B3B" stroke-width="0.75" stroke-miterlimit="5"/>
<path d="M45.9465 53.768C46.0499 51.4844 45.7013 49.203 44.9209 47.0544C44.6598 46.4577 44.3055 45.8796 44.063 45.1896C43.809 44.5339 43.6276 43.8521 43.5222 43.1569C43.3451 42.0911 43.2701 41.0108 43.2984 39.9307" stroke="#3B3B3B" stroke-width="0.75" stroke-miterlimit="5"/>
<path d="M15.6416 54.1798C15.9213 52.5014 15.5297 48.1749 16.7045 46.7203C17.7702 45.7261 18.7671 44.6607 19.6883 43.5314C20.1702 42.5124 20.5571 41.4511 20.8445 40.3611C21.3525 39.0005 22.1848 37.7842 23.2689 36.8179C23.8097 36.3517 24.4624 35.7362 24.2013 35.0835C24.106 34.8907 23.9639 34.7247 23.788 34.6009C23.6122 34.4771 23.408 34.3995 23.1943 34.3749C21.3294 33.9087 20.0799 36.2398 18.7186 37.6571C18.1992 38.0196 17.6429 38.3258 17.0589 38.5708C16.3316 38.9438 15.3245 38.9625 14.5786 39.2795C13.7652 39.65 13.0452 40.1981 12.4713 40.8833" stroke="#3B3B3B" stroke-width="0.75" stroke-miterlimit="5"/>
<path d="M17.9938 38.1208V24.3021C18.0197 24.0586 17.9972 23.8121 17.9278 23.5771C17.8583 23.3421 17.7433 23.123 17.5891 22.9326C17.435 22.742 17.2448 22.5839 17.0294 22.4667C16.8141 22.3498 16.5778 22.2765 16.3341 22.2508C16.0904 22.2765 15.8541 22.3498 15.6387 22.4667C15.4234 22.5839 15.2332 22.742 15.0791 22.9326C14.9249 23.123 14.8098 23.3421 14.7404 23.5771C14.6709 23.8121 14.6485 24.0586 14.6744 24.3021V35.0251" stroke="#3B3B3B" stroke-width="0.75" stroke-miterlimit="5"/>
<path d="M14.6725 35.0252V22.4373C14.6982 22.1923 14.6751 21.9445 14.6045 21.7084C14.5339 21.4723 14.4172 21.2524 14.2611 21.0616C14.1051 20.8709 13.9127 20.7131 13.6952 20.5971C13.4778 20.4811 13.2394 20.4093 12.9941 20.386C12.7504 20.4117 12.5141 20.485 12.2987 20.6019C12.0834 20.7191 11.8932 20.8772 11.7391 21.0678C11.5849 21.2582 11.4698 21.4773 11.4004 21.7123C11.331 21.9473 11.3085 22.1938 11.3344 22.4373V34.3911" stroke="#3B3B3B" stroke-width="0.75" stroke-miterlimit="5"/>
<path d="M11.1494 35.0229V23.5913C11.1522 23.1303 10.9841 22.6846 10.6776 22.3402C10.3711 21.9957 9.94792 21.7772 9.48968 21.7264C9.02809 21.7729 8.60035 21.9896 8.29002 22.3344C7.97967 22.6792 7.80899 23.1273 7.81131 23.5913L7.71806 34.9483" stroke="#3B3B3B" stroke-width="0.75" stroke-miterlimit="5"/>
<path d="M4.30525 40.563V26.0171C4.30245 25.5561 4.47053 25.1104 4.77704 24.7659C5.08353 24.4215 5.50674 24.2029 5.96498 24.1522C6.42659 24.1985 6.85431 24.4154 7.16466 24.7602C7.47501 25.105 7.64569 25.5531 7.64336 26.0171V35.2482" stroke="#3B3B3B" stroke-width="0.75" stroke-miterlimit="5"/>
<path d="M6.95255 53.768C7.05596 51.4844 6.7074 49.203 5.92687 47.0544C5.66579 46.4577 5.33012 45.8796 5.06904 45.1896C4.81504 44.5339 4.63368 43.8521 4.52823 43.1569C4.36035 42.09 4.28548 41.0106 4.30444 39.9307" stroke="#3B3B3B" stroke-width="0.75" stroke-miterlimit="5"/>
<path d="M35.2991 67.2338C35.5788 65.5554 35.2991 61.2102 36.3621 59.7743C37.437 58.7895 38.4345 57.7233 39.3459 56.5854C39.8277 55.5662 40.2147 54.5051 40.5021 53.4151C41.0101 52.0597 41.8425 50.8496 42.9264 49.8905C43.4672 49.4243 44.1199 48.7903 43.8588 48.1375C43.7628 47.949 43.6227 47.7864 43.4508 47.6629C43.2789 47.5397 43.0799 47.4595 42.8704 47.4289C41.0056 46.9627 39.7375 49.2938 38.3948 50.7297C37.8642 51.0792 37.3023 51.3789 36.7164 51.6248C36.0077 52.0165 34.9821 52.0165 34.2361 52.3335C33.4257 52.7089 32.7066 53.256 32.1288 53.9373" stroke="#3B3B3B" stroke-width="0.75" stroke-miterlimit="5"/>
<path d="M37.6505 51.1531V37.3344C37.6762 37.0907 37.6539 36.8443 37.5845 36.6094C37.5149 36.3744 37.3999 36.1553 37.2458 35.9649C37.0916 35.7743 36.9014 35.616 36.686 35.499C36.4708 35.3821 36.2345 35.3086 35.9908 35.2831C35.747 35.3086 35.5108 35.3821 35.2954 35.499C35.08 35.616 34.8898 35.7743 34.7357 35.9649C34.5815 36.1553 34.4664 36.3744 34.3971 36.6094C34.3275 36.8443 34.3051 37.0907 34.331 37.3344L34.2378 48.0574" stroke="#3B3B3B" stroke-width="0.75" stroke-miterlimit="5"/>
<path d="M34.238 48.0574V35.4696C34.2637 35.2245 34.2408 34.9767 34.1701 34.7406C34.0994 34.5045 33.9829 34.2846 33.8268 34.0939C33.6707 33.9031 33.4782 33.7451 33.2608 33.6291C33.0434 33.5133 32.805 33.4415 32.5596 33.4182C32.3159 33.4438 32.0796 33.5172 31.8644 33.6342C31.649 33.7511 31.4588 33.9094 31.3046 34.1C31.1505 34.2904 31.0355 34.5095 30.9659 34.7445C30.8965 34.9795 30.8741 35.2258 30.8999 35.4696L30.8066 47.4233" stroke="#3B3B3B" stroke-width="0.75" stroke-miterlimit="5"/>
<path d="M30.8085 48.0624V36.6308C30.8113 36.1698 30.6433 35.7241 30.3367 35.3797C30.0301 35.0352 29.607 34.8167 29.1488 34.7659C28.6872 34.8124 28.2594 35.0291 27.9491 35.3739C27.6388 35.7187 27.468 36.1668 27.4704 36.6308V47.9878" stroke="#3B3B3B" stroke-width="0.75" stroke-miterlimit="5"/>
<path d="M23.9993 53.5988V39.0529C23.9965 38.5919 24.1645 38.1462 24.4709 37.8017C24.7775 37.4573 25.2007 37.2387 25.659 37.188C26.1206 37.2344 26.5482 37.4511 26.8587 37.7959C27.169 38.1407 27.3397 38.5889 27.3374 39.0529L27.4307 48.2839" stroke="#3B3B3B" stroke-width="0.75" stroke-miterlimit="5"/>
<path d="M26.6126 66.8017C26.7174 64.5241 26.3688 62.2484 25.5869 60.1068C25.3258 59.4914 24.9901 58.9133 24.729 58.2419C24.4836 57.5833 24.3024 56.9026 24.1882 56.2092C24.037 55.1658 23.9747 54.1115 24.0017 53.0576" stroke="#3B3B3B" stroke-width="0.75" stroke-miterlimit="5"/>
</svg>
