<svg width="69" height="69" viewBox="0 0 69 69" fill="none" xmlns="http://www.w3.org/2000/svg">
<path d="M41.8138 7.90381C48.1825 9.91193 54.0567 14.4615 57.5026 20.1379" stroke="#3B3B3B" stroke-miterlimit="10"/>
<path d="M60.5695 29.0292C60.9343 30.8743 61.1178 32.7508 61.117 34.6315C61.1116 48.1478 51.7386 59.4265 39.2714 62.0387" stroke="#3B3B3B" stroke-miterlimit="10"/>
<path d="M41.8175 7.90857C39.2082 7.08143 36.4872 6.65971 33.7498 6.65814C18.6386 6.65814 6.38861 19.1837 6.38861 34.6358C6.38861 50.0878 18.6386 62.6115 33.7498 62.6115C35.6047 62.6125 37.4549 62.4219 39.2709 62.0429" stroke="#3B3B3B" stroke-miterlimit="10"/>
<path d="M50.1915 20.689C49.5258 18.0221 47.1891 15.0973 44.759 13.9282C43.9977 13.5643 43.1835 13.2411 42.606 12.6141C41.5003 11.4131 41.6169 9.54633 41.8164 7.90381" stroke="#3B3B3B" stroke-miterlimit="10"/>
<path d="M36.9161 62.3411C38.8448 58.6675 39.198 53.4785 36.6017 50.2641C35.7185 49.1744 34.53 48.2931 34.0177 46.9826C33.2071 44.9126 34.3709 42.606 35.692 40.8364C35.9835 40.4478 36.2944 40.0575 36.7164 39.8279C37.2339 39.547 37.8469 39.5454 38.4332 39.5489C40.3353 39.5648 42.3964 39.6336 43.8834 40.847C44.7454 41.5535 45.3388 42.5955 46.3102 43.1429C47.2816 43.6904 48.5549 43.6729 49.332 44.4746C49.7365 44.8949 49.936 45.4796 50.0386 46.0642C50.199 47.0173 50.1324 47.9949 49.8447 48.9174C49.5569 49.8402 49.0556 50.6822 48.3819 51.375C47.9298 51.8289 47.3911 52.2281 47.1332 52.8197C46.7464 53.7152 47.1192 54.7466 47.0927 55.7251C47.0927 60.1074 41.4004 60.9387 39.2632 62.0513" stroke="#3B3B3B" stroke-miterlimit="10"/>
<path d="M15.1447 14.2494C15.4414 17.8064 15.7364 21.7555 16.0278 25.3142C16.1867 27.2306 16.381 29.2334 17.476 30.8564C18.5516 32.446 20.4784 33.4933 22.4848 33.5905C23.1066 33.6205 23.7546 33.5692 24.3286 33.7936C25.3601 34.1962 25.7858 35.3107 26.3138 36.231C26.9288 37.2939 27.7811 38.2006 28.8041 38.8802C29.546 39.3746 30.4113 39.7632 31.3191 39.7474C32.2269 39.7313 33.1701 39.2422 33.4527 38.4351C33.7352 37.6279 33.3307 36.7749 33.0359 35.9731C32.7408 35.1712 32.5961 34.1681 33.246 33.5782C33.9648 32.9246 35.1799 33.1914 36.0877 32.7976C37.227 32.3011 37.5625 30.9448 37.6154 29.7703C37.6684 28.5958 37.6154 27.2977 38.4173 26.3951C39.3939 25.2825 41.3226 25.143 42.1262 23.9225C42.8115 22.8929 42.4018 21.5489 41.8807 20.438C41.4197 19.4543 40.8209 18.4475 39.8214 17.9335C38.1117 17.0505 35.9499 17.9335 34.0619 17.4814C32.3559 17.0734 31.1143 15.5969 30.6585 14.0056C30.203 12.4143 31.1619 8.62771 31.5417 7.01874" stroke="#3B3B3B" stroke-miterlimit="10"/>
<path d="M62.8899 26.452C63.8895 25.3427 64.2569 24.0165 63.8983 22.5434C63.5134 20.968 62.519 19.9348 60.9736 19.541C59.4282 19.1471 58.0948 19.5568 56.975 20.7084C56.8373 20.8514 56.7066 20.9999 56.5582 21.1606C56.4575 21.0528 56.3816 20.9575 56.2898 20.871C56.0562 20.6183 55.8055 20.3822 55.5392 20.1644C54.6101 19.4863 53.5628 19.3097 52.4467 19.4738C50.2143 19.8024 48.789 22.019 49.1457 24.2037C49.294 25.0945 49.7076 25.9199 50.3325 26.5721C52.3695 28.7715 54.4024 30.9733 56.431 33.1774C56.4707 33.2263 56.5073 33.2777 56.5406 33.3311L56.7542 33.1015L58.6228 31.0828C60.0481 29.5409 61.484 28.0114 62.8899 26.452Z" stroke="#3B3B3B" stroke-miterlimit="10"/>
</svg>
