<svg width="69" height="69" viewBox="0 0 69 69" fill="none" xmlns="http://www.w3.org/2000/svg">
<path d="M38.0293 9.2176C33.0533 7.25524 21.8413 3.33052 20.3696 6.27406C18.8978 9.2176 21.8398 10.4773 26.0449 11.3183C30.25 12.1594 38.4487 19.7284 42.2332 22.8823C45.2608 25.4053 52.7459 26.036 56.1099 26.036C55.3389 22.5313 53.671 14.8912 53.1664 12.3696C52.5357 9.2176 47.4895 9.21937 43.9153 6.27406C40.341 3.32874 35.6685 1.25546 26.8378 5.67254" stroke="#3B3B3B" stroke-width="0.75"/>
<path d="M30.3662 58.118C35.342 60.0802 46.5541 64.005 48.0259 61.0615C49.4976 58.118 46.5556 56.8581 42.3505 56.0172C38.1454 55.1761 29.9468 47.607 26.1622 44.4532C23.1344 41.9302 15.6495 41.2995 12.2855 41.2995C13.0564 44.8043 14.7244 52.4443 15.229 54.966C15.8598 58.118 20.9059 58.1161 24.4801 61.0615C28.0545 64.0068 32.7269 66.08 41.5574 61.6629" stroke="#3B3B3B" stroke-width="0.75"/>
<path d="M28.0097 12.0075L16.2645 17.9073C15.6501 18.2194 14.9372 18.2763 14.2811 18.0655C13.625 17.8547 13.0786 17.3934 12.7609 16.7818C12.4496 16.1701 12.3933 15.4599 12.6042 14.8068C12.8151 14.1536 13.2761 13.6105 13.8864 13.2964L21.3292 9.35712" stroke="#3B3B3B" stroke-width="0.75" stroke-miterlimit="5"/>
<path d="M36.5855 18.4738L27.0004 22.5401C26.3668 22.8011 25.6559 22.8028 25.0209 22.5447C24.3861 22.2866 23.8779 21.7896 23.6058 21.1604" stroke="#3B3B3B" stroke-width="0.75" stroke-miterlimit="5"/>
<path d="M33.2994 15.9279L21.3729 22.0455C20.7584 22.3577 20.0454 22.4144 19.3894 22.2036C18.7333 21.9929 18.1869 21.5316 17.8692 20.9201" stroke="#3B3B3B" stroke-width="0.75" stroke-miterlimit="5"/>
<path d="M30.9187 13.6951L16.0874 21.2651C15.4881 21.5707 14.7936 21.6317 14.1502 21.4353C13.5068 21.2388 12.9647 20.8004 12.6383 20.2122C12.4669 19.9712 12.3539 19.6936 12.3083 19.4013C12.2627 19.1091 12.2857 18.8104 12.3756 18.5286C12.4654 18.2468 12.6195 17.9898 12.8258 17.7779C13.0321 17.566 13.2849 17.405 13.5641 17.3076" stroke="#3B3B3B" stroke-width="0.75" stroke-miterlimit="5"/>
<path d="M40.3857 55.3244L52.1308 49.4245C52.7453 49.1124 53.4582 49.0557 54.1143 49.2664C54.7703 49.4771 55.3168 49.9385 55.6345 50.55C55.9458 51.1618 56.0021 51.872 55.7912 52.5251C55.5803 53.1783 55.1193 53.7214 54.5089 54.0354L47.0662 57.9748" stroke="#3B3B3B" stroke-width="0.75" stroke-miterlimit="5"/>
<path d="M31.8099 48.8617L41.395 44.7953C42.0286 44.5343 42.7395 44.5328 43.3743 44.7907C44.0093 45.0488 44.5175 45.546 44.7896 46.175" stroke="#3B3B3B" stroke-width="0.75" stroke-miterlimit="5"/>
<path d="M35.0958 51.4076L47.0226 45.2899C47.637 44.9779 48.3498 44.921 49.006 45.1318C49.6621 45.3425 50.2085 45.8039 50.5261 46.4155" stroke="#3B3B3B" stroke-width="0.75" stroke-miterlimit="5"/>
<path d="M37.4767 53.6404L52.308 46.0704C52.9073 45.7649 53.6018 45.7037 54.2452 45.9003C54.8886 46.0967 55.4307 46.5351 55.757 47.1233C55.9284 47.3644 56.0414 47.6419 56.0871 47.9341C56.1326 48.2263 56.1097 48.5251 56.0198 48.8069C55.9301 49.0887 55.7759 49.3456 55.5696 49.5577C55.3633 49.7695 55.1105 49.9305 54.8313 50.0278" stroke="#3B3B3B" stroke-width="0.75" stroke-miterlimit="5"/>
<path d="M33.8432 28.1529C33.7341 28.0619 33.6614 27.9709 33.5704 27.8799C33.3458 27.6366 33.1025 27.4115 32.8423 27.2065C31.9509 26.5896 30.8529 26.3479 29.7849 26.5333C29.2733 26.6193 28.7838 26.8052 28.3443 27.0805C27.9045 27.3555 27.5235 27.7147 27.2227 28.1373C26.9219 28.5597 26.7073 29.0373 26.5909 29.5428C26.4747 30.0482 26.4593 30.5717 26.5452 31.083C26.6879 31.9492 27.0948 32.7502 27.71 33.3762L33.7158 39.7278L33.8251 39.8734L34.0252 39.655L35.8453 37.7078C37.2283 36.2153 38.648 34.7411 40.0312 33.2489C40.5095 32.761 40.8534 32.1575 41.0287 31.4972C41.2042 30.837 41.2053 30.1424 41.0321 29.4815C40.8818 28.7862 40.531 28.1503 40.0232 27.6522C39.5154 27.1541 38.8727 26.8156 38.1747 26.6788C37.481 26.4816 36.746 26.4811 36.0519 26.6771C35.3578 26.8733 34.7318 27.2582 34.2436 27.7889L33.8432 28.1529Z" stroke="#3B3B3B" stroke-width="0.75" stroke-miterlimit="10"/>
</svg>
