<svg width="69" height="69" viewBox="0 0 69 69" fill="none" xmlns="http://www.w3.org/2000/svg">
<path d="M41.7649 51.2083C41.4906 44.3131 48.302 40.2212 51.924 37.8593C56.3469 34.9751 58.6091 32.1185 59.4463 30.903C59.6201 30.6504 60.0041 30.6705 60.1201 30.9559C61.2164 33.6526 64.8729 44.0624 59.9632 52.6111C54.2726 62.5199 46.922 59.2984 46.922 59.2984" stroke="#3B3B3B" stroke-linecap="round" stroke-linejoin="round"/>
<path d="M54.0593 44.6037C54.0593 44.6037 45.2677 59.3615 35.4945 62.2512" stroke="#3B3B3B" stroke-linecap="round" stroke-linejoin="round"/>
<path d="M57.0606 49.4402C57.0606 49.4402 52.9668 51.5994 50.2615 50.5931" stroke="#3B3B3B" stroke-linecap="round" stroke-linejoin="round"/>
<path d="M48.4574 46.9509C48.4574 46.9509 46.3027 50.1414 48.0451 52.5468" stroke="#3B3B3B" stroke-linecap="round" stroke-linejoin="round"/>
<path d="M16.2293 37.3177C22.6251 39.418 24.0284 47.3976 24.9446 51.7044C26.0635 56.9637 27.8982 60.1277 28.7221 61.3527C28.8933 61.6072 28.7432 61.971 28.4426 61.985C25.6018 62.1184 14.8336 62.0776 8.70475 54.4055C1.60075 45.5126 7.06654 39.5213 7.06654 39.5213" stroke="#3B3B3B" stroke-linecap="round" stroke-linejoin="round"/>
<path d="M18.044 51.4542C18.044 51.4542 7.57193 37.9044 8.28343 27.4781" stroke="#3B3B3B" stroke-linecap="round" stroke-linejoin="round"/>
<path d="M12.5988 52.6934C12.5988 52.6934 12.0297 48.0006 13.8773 45.7339" stroke="#3B3B3B" stroke-linecap="round" stroke-linejoin="round"/>
<path d="M17.8182 45.2438C17.8182 45.2438 15.6414 42.0691 12.8453 42.9262" stroke="#3B3B3B" stroke-linecap="round" stroke-linejoin="round"/>
<path d="M40.9864 23.5664C35.7547 27.8917 28.5041 24.6949 24.5032 23.1054C19.6173 21.1646 16.0375 20.9928 14.5888 21.0237C14.288 21.03 14.0754 20.7007 14.2297 20.4353C15.688 17.9261 21.6591 8.71604 31.2661 7.69204C42.4016 6.50509 44.2505 14.4952 44.2505 14.4952" stroke="#3B3B3B" stroke-linecap="round" stroke-linejoin="round"/>
<path d="M28.5121 17.3286C28.5121 17.3286 45.2847 15.8219 53.3551 22.1814" stroke="#3B3B3B" stroke-linecap="round" stroke-linejoin="round"/>
<path d="M30.5116 11.9754C30.5116 11.9754 34.6343 14.0753 35.4554 16.9093" stroke="#3B3B3B" stroke-linecap="round" stroke-linejoin="round"/>
<path d="M33.6768 20.5593C33.6768 20.5593 37.4539 20.4436 38.3002 17.5735" stroke="#3B3B3B" stroke-linecap="round" stroke-linejoin="round"/>
</svg>
