<svg width="91" height="49" viewBox="0 0 91 49" fill="none" xmlns="http://www.w3.org/2000/svg">
<path d="M3.86256 23.5941C3.82602 23.6347 3.78571 23.6675 3.74281 23.6913C3.67915 23.7622 3.60692 23.8149 3.5299 23.8467L3.2106 23.9828C3.06911 24.0057 2.92638 24.0057 2.78489 23.9828C2.51014 23.9939 2.23723 23.9142 1.98659 23.7496C1.76195 23.6285 1.56734 23.412 1.42779 23.1277C1.27053 22.857 1.15687 22.5382 1.09519 22.1949C1.02264 21.8024 0.991265 21.3962 1.00208 20.9899C1.00305 20.5898 1.03879 20.1915 1.10848 19.8045C1.18103 19.4675 1.29362 19.1517 1.44108 18.8717C1.59597 18.602 1.79188 18.389 2.01323 18.2498C2.26344 18.0832 2.53662 18.0034 2.81148 18.0166C2.94409 17.9945 3.07799 17.9945 3.2106 18.0166C3.31856 18.054 3.42512 18.0994 3.5299 18.1527L3.75611 18.3276L3.90244 18.4636L3.9956 18.6385C4.00147 18.703 4.00147 18.7684 3.9956 18.8328C3.98715 18.9567 3.95986 19.0762 3.91573 19.1826C3.86364 19.3042 3.79588 19.4098 3.71617 19.4936L3.56984 19.2992C3.51247 19.2114 3.44492 19.139 3.37028 19.0855L3.13078 18.9495C3.02896 18.9374 2.92665 18.9374 2.82477 18.9495C2.65664 18.9349 2.48953 18.996 2.34583 19.1243C2.21118 19.2305 2.09687 19.3841 2.01323 19.5713C1.92965 19.7773 1.86695 19.9999 1.82697 20.2321C1.81319 20.4778 1.81319 20.7248 1.82697 20.9705C1.81383 21.2228 1.81383 21.4762 1.82697 21.7285C1.86695 21.9606 1.92965 22.1832 2.01323 22.3892C2.09262 22.5864 2.20768 22.7478 2.34583 22.8555C2.50401 22.963 2.67698 23.0163 2.85141 23.0111C2.94387 23.0343 3.03832 23.0343 3.13078 23.0111C3.21732 22.9967 3.29983 22.9498 3.37028 22.875C3.47738 22.7753 3.57963 22.6649 3.67629 22.5447C3.67629 22.5447 3.67629 22.5447 3.75611 22.6807C3.79146 22.7294 3.81875 22.7892 3.83592 22.8555C3.83592 22.8555 3.90244 22.9528 3.91573 23.0111C3.93333 23.1329 3.93333 23.2586 3.91573 23.3803C3.91137 23.4235 3.90083 23.4648 3.88479 23.5017C3.86875 23.5385 3.84754 23.57 3.82263 23.5941" fill="#3B3B3B"/>
<path d="M6.95538 20.9789C6.95462 21.3729 6.92466 21.7651 6.86619 22.1457C6.8199 22.4972 6.73256 22.8282 6.60967 23.1182C6.48935 23.3985 6.33263 23.6251 6.15244 23.7794C5.93576 23.95 5.69806 24.0236 5.46094 23.9934C5.23203 23.9991 5.0047 23.9264 4.79181 23.7794C4.61672 23.6197 4.46432 23.3938 4.34572 23.1182C4.22369 22.8248 4.13301 22.4954 4.07806 22.1457C3.97398 21.3981 3.97398 20.618 4.07806 19.8703C4.14789 19.5003 4.25766 19.157 4.40148 18.859C4.52942 18.594 4.68935 18.3815 4.86985 18.2367C5.07824 18.0626 5.30832 17.9824 5.53903 18.0032C5.76537 17.9993 5.98958 18.0788 6.19702 18.2367C6.37242 18.3868 6.52811 18.5987 6.65429 18.859C6.77041 19.1417 6.85721 19.4576 6.91081 19.7926C6.97 20.153 7.00005 20.5261 7 20.9011L6.95538 20.9789ZM6.30858 20.9011C6.32676 20.6427 6.32676 20.3814 6.30858 20.1232C6.2877 19.9025 6.24222 19.691 6.17473 19.5008C6.11405 19.3204 6.03 19.1672 5.92936 19.0535C5.82361 18.9324 5.69896 18.8713 5.5725 18.8784C5.43906 18.8717 5.30737 18.9325 5.19332 19.0535C5.09263 19.1672 5.00862 19.3204 4.94795 19.5008C4.87928 19.6883 4.83724 19.9016 4.82528 20.1232C4.7909 20.3782 4.77223 20.639 4.76952 20.9011C4.76866 21.1571 4.78743 21.4122 4.82528 21.6596C4.84306 21.8911 4.88461 22.115 4.94795 22.3208C5.04769 22.611 5.20907 22.8208 5.39706 22.9045C5.585 22.9883 5.78431 22.9393 5.95169 22.7681C6.0513 22.6583 6.13219 22.5038 6.18587 22.3208C6.25309 22.1164 6.29843 21.8923 6.31973 21.6596C6.33078 21.4071 6.33078 21.1535 6.31973 20.9011" fill="#3B3B3B"/>
<path d="M11 23H10.5603L9.49138 19.7182V23H9V18.0001H9.09482H9.22416C9.28989 17.9983 9.35489 18.0277 9.41379 18.0859C9.46372 18.1386 9.5032 18.2234 9.52587 18.3265L10.5086 21.5052V18.0688H10.8017C10.8357 18.0527 10.8711 18.0527 10.9051 18.0688C10.922 18.0864 10.9368 18.1107 10.9486 18.1403C10.9605 18.1699 10.9692 18.204 10.9741 18.2406C10.9846 18.3368 10.9846 18.4365 10.9741 18.5327V22.9828L11 23Z" fill="#3B3B3B"/>
<path d="M13.6557 19.9587H14.683V20.7662H13.6557V23H13V18H15C14.9971 18.0399 14.9971 18.0803 15 18.1203V18.2749C15.0012 18.4135 14.9701 18.5479 14.9125 18.6529C14.8734 18.7107 14.8267 18.7544 14.7758 18.7811C14.7249 18.8078 14.6708 18.8168 14.6175 18.8076H13.6339L13.6557 19.9587Z" fill="#3B3B3B"/>
<path d="M20 20.4491C20.0002 20.7836 19.9741 21.1162 19.9227 21.435C19.8739 21.7281 19.8015 22.0037 19.7081 22.2509C19.6052 22.4876 19.4759 22.6737 19.3305 22.7948C19.1599 22.9403 18.9753 23.01 18.7897 22.9989H18V18.0862C18.1631 18.0862 18.2918 18.0012 18.4034 18.0012H18.6953C18.9024 17.9902 19.1089 18.0535 19.3047 18.1882C19.4553 18.3003 19.5905 18.4808 19.6996 18.7152C19.796 18.9458 19.8689 19.2114 19.9141 19.4971C19.9717 19.8074 20.0008 20.1354 20 20.466V20.4491ZM19.4678 20.466C19.4818 20.2516 19.4818 20.0345 19.4678 19.8201C19.4459 19.6332 19.4081 19.455 19.3562 19.2931C19.3 19.1353 19.2228 19.0117 19.133 18.9361C19.0201 18.8566 18.901 18.8162 18.7811 18.8171H18.5493V22.2169H18.7554C18.878 22.2177 18.9999 22.1775 19.1159 22.0979C19.2094 22.0264 19.288 21.8947 19.339 21.7239C19.3979 21.5613 19.4389 21.376 19.4592 21.1799C19.492 20.9478 19.5064 20.7069 19.5021 20.466" fill="#3B3B3B"/>
<path d="M23.4333 22.2097C23.656 22.2097 23.7991 22.2612 23.8627 22.3642C23.9071 22.4143 23.9413 22.4737 23.9632 22.5388C23.9851 22.6038 23.9942 22.6732 23.99 22.7423V22.8626C24.0033 22.9073 24.0033 22.9553 23.99 23H21V18H23.8787C23.8763 18.0401 23.8763 18.0803 23.8787 18.1203V18.2749C23.8888 18.4171 23.8491 18.5582 23.7673 18.6701C23.6323 18.7699 23.4683 18.8126 23.3061 18.7904H21.9383V20.0275H23.4015V20.8351H21.9383V22.2097H23.4333Z" fill="#3B3B3B"/>
<path d="M27 23H26.5622L25.4893 19.7182V23H25V18.0001H25.103H25.2317C25.2972 17.9983 25.3619 18.0277 25.4206 18.0859C25.4687 18.1481 25.5097 18.2302 25.5408 18.3265L26.5107 21.5052V18.0688H26.794C26.8276 18.0497 26.8633 18.0497 26.897 18.0688C26.897 18.0688 26.9657 18.1546 26.9742 18.2406C26.9888 18.3357 26.9888 18.4375 26.9742 18.5327V22.9828L27 23Z" fill="#3B3B3B"/>
<path d="M30.8981 23.5506C30.866 23.6006 30.8242 23.6348 30.7785 23.6485C30.7165 23.7235 30.6438 23.7769 30.5658 23.8048C30.4571 23.8606 30.3461 23.9063 30.2335 23.9416C29.8185 24.0593 29.3892 23.9982 28.9973 23.7657C28.7716 23.6376 28.574 23.4213 28.4257 23.1402C28.2736 22.8632 28.1607 22.5442 28.0934 22.2021C28.0274 21.8056 27.9961 21.3984 28.0004 20.9903C27.9981 20.5862 28.0385 20.184 28.12 19.798C28.1925 19.4591 28.305 19.1416 28.4523 18.8598C28.6048 18.5935 28.7955 18.3799 29.0106 18.2345C29.3932 18.0018 29.814 17.9405 30.2202 18.0586C30.3237 18.0958 30.4257 18.1416 30.5259 18.1954L30.7651 18.3713C30.8051 18.4253 30.8498 18.4714 30.8981 18.5081L30.9911 18.684C31.003 18.7479 31.003 18.8154 30.9911 18.8794C30.9839 19.0075 30.9516 19.1297 30.8981 19.2312C30.846 19.3535 30.7783 19.4597 30.6987 19.544L30.5525 19.3485C30.4952 19.2601 30.4276 19.1874 30.3531 19.1336L30.1006 18.9968C29.9988 18.9859 29.8966 18.9859 29.7948 18.9968C29.6228 18.9853 29.4522 19.0463 29.303 19.1726C29.1761 19.2805 29.0707 19.4356 28.9973 19.6221C28.9125 19.8262 28.854 20.0515 28.8245 20.2867C28.7819 20.5294 28.7596 20.7788 28.758 21.0294C28.7605 21.2863 28.7828 21.5421 28.8245 21.7917C28.854 22.0269 28.9125 22.252 28.9973 22.4561C29.0766 22.6545 29.1916 22.8168 29.3296 22.9252C29.4876 23.0333 29.6604 23.0868 29.8347 23.0816H30.1271C30.209 23.0639 30.2865 23.0169 30.3531 22.9448L30.5525 22.7689L30.6854 22.6125L30.7651 22.7494C30.7963 22.8032 30.823 22.8623 30.8449 22.9252C30.8449 22.9252 30.8449 23.023 30.9113 23.0816C30.9228 23.1391 30.9228 23.2001 30.9113 23.2575C30.9266 23.3208 30.9266 23.3898 30.9113 23.453C30.9113 23.453 30.9113 23.6093 30.9113 23.668" fill="#3B3B3B"/>
<path d="M33.6085 22.2097C33.6635 22.1975 33.7194 22.2051 33.7724 22.2318C33.8254 22.2585 33.8742 22.3038 33.9153 22.3642C33.971 22.4692 34.0012 22.6037 34 22.7423V23H32V18H33.8836C33.8836 18 33.8836 18.1031 33.8836 18.1203V18.2749C33.8851 18.4161 33.8592 18.5544 33.8095 18.6701C33.7154 18.7683 33.6032 18.8107 33.492 18.7904H32.6032V20.0275H33.5767V20.8351H32.6032V22.2097H33.6085Z" fill="#3B3B3B"/>
<path d="M37 18.0859H37.6031C37.6657 18.0699 37.7308 18.0699 37.7938 18.0859C37.8259 18.1016 37.8541 18.1253 37.8759 18.1552C37.8984 18.1851 37.9132 18.2203 37.9202 18.2578C37.9742 18.3438 38.0024 18.4459 37.9998 18.5498V23H37.0476V18L37 18.0859Z" fill="#3B3B3B"/>
<path d="M42 23H41.3506L39.7403 19.7182V23H39V18.0001H39.156H39.3378C39.4366 17.9983 39.5349 18.0277 39.6236 18.0859C39.6988 18.1386 39.7581 18.2234 39.7923 18.3265L41.2597 21.4708V18.0344H41.4158H41.5198C41.5797 18.0177 41.6417 18.0177 41.7016 18.0344C41.7489 18.0247 41.7972 18.0247 41.8445 18.0344C41.8718 18.051 41.896 18.0748 41.9165 18.1043C41.9364 18.1339 41.9517 18.1686 41.9611 18.2062C41.9821 18.3074 41.9821 18.4143 41.9611 18.5155L42 23Z" fill="#3B3B3B"/>
<path d="M45.1403 19.7887H44.0088C43.9971 19.7443 43.9971 19.696 44.0088 19.6517V19.549C44.0128 19.4093 44.053 19.276 44.1217 19.1723C44.169 19.113 44.2245 19.0673 44.2851 19.0379C44.3456 19.0085 44.4097 18.996 44.4738 19.0011H46.9893C47.0036 19.1087 47.0036 19.2188 46.9893 19.3264C46.9852 19.4498 46.9547 19.5688 46.9013 19.6688C46.8545 19.7281 46.7985 19.7738 46.738 19.8032C46.6779 19.8326 46.6133 19.8452 46.5492 19.84H45.87V24H45.1154V19.84L45.1403 19.7887Z" fill="#3B3B3B"/>
<path d="M49.6291 22.2097C49.7772 22.2097 49.8722 22.2612 49.9146 22.3642C49.9441 22.4143 49.9668 22.4737 49.9813 22.5388C49.9959 22.6038 50.0023 22.6732 49.9993 22.7423V23H48V18H49.9146C49.912 18.04 49.912 18.0803 49.9146 18.1203V18.2749C49.9171 18.348 49.9098 18.4211 49.8932 18.4892C49.8769 18.5573 49.8516 18.619 49.8196 18.6701C49.7297 18.7699 49.6206 18.8126 49.5127 18.7904H48.5713V20.0275H49.6291V20.8351H48.5713V22.2097H49.6291Z" fill="#3B3B3B"/>
<path d="M52.4879 22.2788L51.8051 23.988H51L52.0612 21.5096L51.1342 19.1338L51.3661 19.0142H51.5974C51.6872 19.0124 51.775 19.0469 51.851 19.1137C51.9265 19.1804 51.9867 19.2764 52.0247 19.3902L52.5368 20.7405L53.0735 19.4756C53.1307 19.3386 53.2052 19.2171 53.293 19.1167C53.3759 19.0402 53.4746 19.0042 53.5733 19.0142C53.6379 18.9953 53.704 18.9953 53.7686 19.0142C53.8347 19.0357 53.8969 19.0764 53.9517 19.1338L52.9635 21.4755L54 23.988C53.9314 23.9941 53.8619 23.9941 53.7928 23.988C53.7242 24.004 53.6542 24.004 53.5856 23.988C53.4716 23.9958 53.3596 23.9474 53.2684 23.8513C53.1855 23.7673 53.1184 23.6557 53.0735 23.5266L52.4879 22.2788Z" fill="#3B3B3B"/>
<path d="M55.7635 19.7888H55C55 19.7888 55 19.7032 55 19.6518V19.5491C55.0031 19.4095 55.0295 19.2762 55.0757 19.1725C55.1086 19.1127 55.1473 19.0668 55.189 19.0374C55.2308 19.008 55.2749 18.9957 55.319 19.0013H56.9967C57.0011 19.1095 57.0011 19.2183 56.9967 19.3266C56.996 19.3911 56.9889 19.4547 56.976 19.5135C56.9631 19.5723 56.9444 19.6252 56.921 19.669C56.8925 19.7317 56.8572 19.7797 56.8179 19.8094C56.7785 19.8392 56.7364 19.8497 56.6947 19.8402H56.2247V24H55.7214L55.7635 19.7888Z" fill="#3B3B3B"/>
<path d="M58.0668 18.0859H58.617C58.6886 18.0691 58.7629 18.0691 58.8344 18.0859C58.8722 18.0978 58.906 18.12 58.9323 18.1503C58.9593 18.1806 58.9769 18.2178 58.9843 18.2578C59.0052 18.354 59.0052 18.4537 58.9843 18.5498V23H58V18L58.0668 18.0859Z" fill="#3B3B3B"/>
<path d="M60.7343 22.1945H61.6796C61.7421 22.1736 61.8064 22.1736 61.8685 22.1945C61.9176 22.2095 61.9612 22.2523 61.9909 22.3145C61.9972 22.3712 61.9972 22.4291 61.9909 22.4859C62.003 22.5532 62.003 22.6242 61.9909 22.6915V22.8629C61.9909 22.9486 61.9909 22.9657 61.9909 23H60V18.0127H60.1224H60.3671C60.4148 17.9958 60.4643 17.9958 60.5116 18.0127C60.5606 18.0547 60.6024 18.1133 60.6339 18.184C60.647 18.2802 60.647 18.3793 60.6339 18.4754V22.0917L60.7343 22.1945Z" fill="#3B3B3B"/>
<path d="M65.6046 22.2097C65.7166 22.1937 65.8278 22.2493 65.9143 22.3642C65.971 22.4692 66.0013 22.6037 66 22.7423V23H64V18H65.9359C65.9329 18.04 65.9329 18.0803 65.9359 18.1203V18.2749C65.9385 18.4192 65.9082 18.5599 65.8503 18.6701C65.7599 18.7714 65.6491 18.8143 65.5401 18.7904H64.6312V20.0275H65.6149V20.8351H64.6312V22.2097H65.6046Z" fill="#3B3B3B"/>
<path d="M66.275 22.5411C66.4152 22.6898 66.567 22.8169 66.7292 22.9199C66.933 23.0426 67.1552 23.1039 67.3799 23.0994C67.465 23.1187 67.5519 23.1187 67.637 23.0994C67.7245 23.0776 67.8071 23.0299 67.8788 22.9598C67.9528 22.9085 68.0153 22.833 68.0605 22.7405C68.0814 22.6157 68.0814 22.4865 68.0605 22.3617C68.0777 22.2365 68.0777 22.1082 68.0605 21.9829C68.014 21.8675 67.9394 21.7761 67.8488 21.7237C67.7643 21.6367 67.6657 21.5754 67.5611 21.5443C67.4558 21.477 67.3438 21.4301 67.2281 21.4047C67.1075 21.4047 66.941 21.2851 66.8198 21.2054C66.6863 21.1222 66.5596 21.0219 66.4415 20.9063C66.3185 20.7865 66.2199 20.6292 66.1538 20.4478C66.0681 20.2187 66.0265 19.9653 66.0332 19.7101C66.0277 19.459 66.0748 19.2107 66.1691 18.9924C66.2554 18.7886 66.368 18.6065 66.5021 18.4541C66.6612 18.3164 66.8345 18.209 67.0163 18.1351C67.2091 18.0646 67.4068 18.0245 67.6064 18.0155C67.7423 17.9948 67.8794 17.9948 68.0153 18.0155C68.1303 18.0314 68.243 18.0718 68.3482 18.1351C68.4303 18.1625 68.5111 18.1958 68.59 18.2348L68.7418 18.3544C68.792 18.3945 68.8349 18.4496 68.8667 18.5154C68.8979 18.5812 68.9175 18.6557 68.923 18.7331C68.912 18.8382 68.8863 18.9396 68.8477 19.0322C68.7975 19.1652 68.7308 19.2865 68.6506 19.3911C68.5245 19.2483 68.3813 19.1337 68.227 19.0521C68.055 18.9546 67.8696 18.907 67.6823 18.9126C67.6021 18.8931 67.52 18.8931 67.4405 18.9126C67.3597 18.9211 67.2819 18.9553 67.2134 19.0123C67.1424 19.0687 67.0805 19.1432 67.0316 19.2316C67.0071 19.3355 67.0071 19.4467 67.0316 19.5506C67.0089 19.6548 67.0089 19.7654 67.0316 19.8696C67.0842 19.959 67.1454 20.0394 67.2134 20.1088C67.2954 20.1848 67.3878 20.239 67.4858 20.2684C67.5813 20.3368 67.6829 20.3903 67.7882 20.4278L68.2117 20.6471C68.355 20.7263 68.4872 20.8338 68.6053 20.9661C68.7339 21.0865 68.8337 21.2525 68.893 21.4446C68.9702 21.6626 69.0069 21.902 68.9989 22.1424C69.0069 22.4236 68.9659 22.7034 68.8777 22.9598C68.8012 23.1829 68.6874 23.3806 68.5447 23.538C68.3911 23.7082 68.2099 23.8308 68.0153 23.8968C67.798 23.9716 67.5739 24.0053 67.3493 23.9966C67.0897 24.0115 66.8302 23.9779 66.5774 23.8968L66.1538 23.6576C66.1538 23.6576 66.0632 23.6577 66.0179 23.4782C65.994 23.4014 65.994 23.3156 66.0179 23.2389C66.0253 23.1174 66.0565 23.0006 66.1085 22.9L66.3356 22.5212" fill="#3B3B3B"/>
<path d="M7.99919 6.93022C8.00907 7.85095 7.92864 8.76871 7.76056 9.65352C7.63205 10.4756 7.3879 11.2458 7.04475 11.9114C6.71613 12.5618 6.29208 13.087 5.80632 13.4454C5.22412 13.8381 4.59109 14.0266 3.95429 13.997C3.33018 14.0182 2.71149 13.8175 2.14768 13.4109C1.66325 13.0569 1.24228 12.5306 0.920599 11.8769C0.59657 11.2025 0.357708 10.4427 0.216146 9.63625C0.0675525 8.75213 -0.00497479 7.84259 0.000264833 6.93022C0.0023331 6.03905 0.0825821 5.15224 0.238851 4.29315C0.386618 3.48239 0.64175 2.72583 0.98876 2.06971C1.3275 1.425 1.75889 0.906265 2.24995 0.553001C2.81817 0.170369 3.43497 -0.0179435 4.05651 0.00144128C4.67079 -0.0185629 5.28028 0.169889 5.84037 0.553001C6.31865 0.890725 6.73869 1.39219 7.0675 2.01801C7.39001 2.67246 7.62543 3.41599 7.76056 4.207C7.91604 5.0957 7.9962 6.0108 7.99919 6.93022ZM6.13581 6.93022C6.13756 6.32356 6.10332 5.71788 6.03355 5.12049C5.97886 4.58626 5.85945 4.07199 5.6813 3.60373C5.52728 3.1807 5.30428 2.82463 5.03366 2.56957C4.73927 2.30136 4.39966 2.16956 4.05651 2.19038C3.70822 2.15151 3.35983 2.26376 3.05202 2.51402C2.74417 2.76429 2.48964 3.14224 2.31811 3.60373C2.13353 4.07239 2.0029 4.58531 1.9318 5.12049C1.86368 5.7185 1.82572 6.32348 1.81818 6.93022C1.82627 7.54837 1.86424 8.16479 1.9318 8.77451C2.00819 9.31571 2.1344 9.83793 2.30675 10.3257C2.46417 10.7645 2.69053 11.1374 2.96575 11.4116C3.26754 11.6867 3.61358 11.8299 3.96565 11.8252C4.31817 11.8355 4.66523 11.6919 4.96549 11.4116C5.24232 11.1454 5.46615 10.77 5.61314 10.3257C5.77888 9.83841 5.89387 9.31516 5.95399 8.77451C6.05166 8.17121 6.09753 7.55134 6.09036 6.93022" fill="#3B3B3B"/>
<path d="M14.04 11.7989C14.1765 11.7663 14.3154 11.7881 14.4467 11.8629C14.578 11.9377 14.6986 12.0638 14.8 12.2319C14.9238 12.5293 14.9937 12.8885 15 13.2603V13.6572C15 13.7655 15 13.8737 15 14H10V0H14.83C14.83 0.162371 14.83 0.288662 14.83 0.396907C14.8358 0.516958 14.8358 0.63771 14.83 0.757754C14.8394 0.96168 14.8246 1.16685 14.7867 1.3597C14.7488 1.55254 14.6885 1.72864 14.61 1.8763C14.3869 2.16408 14.1126 2.29258 13.84 2.23709H11.54V5.70103H14.01V7.9381H11.54V11.817H14.03L14.04 11.7989Z" fill="#3B3B3B"/>
<path d="M17 0.0363503H17.3174H17.5752C17.6907 0.0183409 17.8068 0.0183409 17.9223 0.0363503C18.0429 0.0674144 18.158 0.145604 18.2595 0.265265C18.3641 0.390215 18.4493 0.559725 18.5074 0.758291C18.5745 1.01726 18.6051 1.30126 18.5967 1.58588V6.51615C18.6112 6.19955 18.6654 5.89276 18.7554 5.61817C18.8496 5.32324 18.9556 5.04076 19.0727 4.77296L20.6496 1.09285C20.783 0.732234 20.9677 0.440637 21.1851 0.24764C21.3569 0.0896629 21.5471 0.00526853 21.7405 0.00115355C21.9283 -0.00973081 22.1149 0.05653 22.286 0.194818C22.436 0.28329 22.5721 0.434223 22.6826 0.635025L20.1438 6.65705L23 13.5242C22.7302 13.8299 22.4175 13.9946 22.0975 13.9996C21.8603 14.0065 21.6255 13.9145 21.4119 13.731C21.1983 13.5475 21.012 13.2778 20.8678 12.9432L19.1917 9.05173C19.0424 8.72448 18.9128 8.37034 18.805 7.99525C18.6977 7.64133 18.6335 7.25143 18.6165 6.85072V13.7355H17.0595V0.0891732L17 0.0363503Z" fill="#3B3B3B"/>
<path d="M30.9992 6.93025C31.009 7.85091 30.9287 8.76874 30.7609 9.65356C30.6325 10.4757 30.3887 11.2459 30.0461 11.9114C29.7153 12.5579 29.2925 13.0823 28.8094 13.4454C28.2281 13.8381 27.5959 14.0267 26.96 13.997C26.3294 14.0198 25.704 13.8191 25.1333 13.4109C24.6476 13.0617 24.2265 12.5345 23.908 11.877C23.5834 11.2056 23.3483 10.4445 23.2158 9.63629C23.0675 8.75217 22.995 7.84256 23.0003 6.93025C22.9987 6.0398 23.075 5.153 23.2272 4.29313C23.3796 3.48524 23.6339 2.73006 23.976 2.06968C24.3171 1.42917 24.7471 0.911249 25.2354 0.55296C25.8068 0.17 26.4264 -0.0182711 27.0508 0.00139783C27.6678 -0.0182843 28.2801 0.170098 28.8434 0.55296C29.3174 0.883905 29.7305 1.38703 30.0461 2.01798C30.3717 2.67151 30.6106 3.41498 30.7495 4.20697C30.9252 5.08959 31.0094 6.0083 30.9992 6.93025ZM29.1384 6.93025C29.1402 6.32353 29.106 5.71786 29.0363 5.12047C28.9817 4.58623 28.8625 4.07196 28.6846 3.6037C28.5308 3.18067 28.3081 2.8246 28.0379 2.56954C27.7444 2.29943 27.4049 2.16748 27.0621 2.19035C26.7017 2.17195 26.3448 2.30304 26.0296 2.56954C25.7566 2.83632 25.5245 3.18898 25.3489 3.6037C25.1721 4.07432 25.0493 4.58725 24.9858 5.12047C24.9122 5.71731 24.8742 6.32301 24.8724 6.93025C24.8748 7.54881 24.9128 8.16593 24.9858 8.77448C25.0427 9.32121 25.1659 9.84715 25.3489 10.3257C25.5068 10.7691 25.7374 11.1431 26.0183 11.4116C26.319 11.6815 26.6618 11.8238 27.0111 11.8238C27.3603 11.8238 27.7031 11.6815 28.0039 11.4116C28.2829 11.1504 28.5073 10.7737 28.6506 10.3257C28.8227 9.8379 28.9487 9.31568 29.025 8.77448C29.1037 8.1671 29.1417 7.54923 29.1384 6.93025Z" fill="#3B3B3B"/>
<path d="M33.9032 8.93709C33.3093 8.93709 33.0124 8.54384 33.0124 7.78867C32.9959 7.52705 32.9959 7.26373 33.0124 7.00205H36.0879C36.3186 6.98679 36.5483 7.05708 36.7561 7.20655C36.9258 7.34814 37 7.64708 37 8.15046V8.60675C36.9947 8.73769 36.9947 8.86906 37 9L33.9032 8.93709Z" fill="#3B3B3B"/>
<path d="M39.6409 2.32543H37C37 2.16353 37 2.00161 37 1.91167V1.51592C36.9981 1.13625 37.0836 0.769586 37.2391 0.490554C37.3489 0.319117 37.479 0.187431 37.6212 0.10381C37.7634 0.0201889 37.9145 -0.0135148 38.0649 0.00488571H43.9878C44.0041 0.304095 44.0041 0.605108 43.9878 0.904316C43.9891 1.27193 43.9122 1.62856 43.7706 1.91167C43.6629 2.08114 43.5341 2.20932 43.3934 2.28705C43.2523 2.36478 43.1029 2.39014 42.9556 2.36138H41.369V14H39.6193V2.36138L39.6409 2.32543Z" fill="#3B3B3B"/>
<path d="M49.836 11.7989C49.9996 11.7624 50.1671 11.7824 50.3248 11.8574C50.4831 11.9324 50.6277 12.0604 50.7476 12.2319C50.9005 12.5272 50.9888 12.8865 51 13.2603V13.6572C50.9874 13.7707 50.9874 13.8865 51 14H45V0H50.8078C50.8175 0.1319 50.8175 0.265009 50.8078 0.396907C50.8078 0.505159 50.8078 0.595382 50.8078 0.757754C50.8238 1.16571 50.7335 1.56699 50.5559 1.8763C50.286 2.15801 49.9588 2.28591 49.6317 2.23709H46.8838V5.70103H49.8239V7.9381H46.8722V11.817H49.836V11.7989Z" fill="#3B3B3B"/>
<path d="M54.4193 9.34652L52.8386 13.8759H51L53.4515 7.01108L51.301 0.517865L51.8173 0.181696C52 0.105756 52.1879 0.0641937 52.3763 0.0578335C52.5846 0.0485849 52.7899 0.138957 52.9674 0.317978C53.1448 0.497 53.2871 0.756981 53.3762 1.06634L54.5807 4.76412L55.8064 1.22556C55.9221 0.851062 56.0922 0.529067 56.301 0.287848C56.4985 0.0758081 56.7329 -0.0236611 56.9678 0.00475749C57.1283 -0.00859747 57.2888 0.0274 57.4411 0.11091C57.5929 0.19146 57.7399 0.29207 57.8817 0.411711L55.5698 6.8873L58 13.7697C57.8378 13.8756 57.6681 13.9469 57.4946 13.9821C57.3375 14.006 57.1792 14.006 57.0217 13.9821C56.7481 14.0158 56.4754 13.8974 56.2475 13.6459C56.0518 13.3912 55.8904 13.0718 55.7742 12.7082L54.4193 9.34652Z" fill="#3B3B3B"/>
<path d="M64.9999 1.70732C65.7541 1.70056 66.4926 2.00763 67.1216 2.58958C67.751 3.17153 68.2424 4.00212 68.5339 4.97586C68.8249 5.94959 68.9034 7.02251 68.7583 8.05852C68.6133 9.09452 68.2512 10.0469 67.719 10.7946C67.1867 11.5423 66.5079 12.0517 65.7684 12.2581C65.0285 12.4644 64.2619 12.3586 63.5654 11.9538C62.8693 11.549 62.2744 10.8636 61.8566 9.98466C61.4387 9.10567 61.2172 8.07275 61.2197 7.01704C61.2227 5.61314 61.6218 4.2678 62.3296 3.27349C63.0375 2.27918 63.9975 1.71631 64.9999 1.70732ZM64.9999 0C64.0108 4.11859e-06 63.0435 0.410991 62.2211 1.18092C61.3983 1.95085 60.7575 3.04511 60.3796 4.32519C60.0013 5.60527 59.9031 7.01362 60.097 8.37192C60.2908 9.7303 60.7683 10.9775 61.4688 11.9558C62.1693 12.9341 63.0612 13.5994 64.032 13.8676C65.0028 14.1357 66.0087 13.9947 66.9218 13.4622C67.8354 12.9298 68.6153 12.0299 69.1633 10.8765C69.7109 9.72318 70.0025 8.36809 70 6.9829C69.9965 5.12936 69.4687 3.35328 68.5309 2.04422C67.5937 0.735153 66.3239 -5.51419e-06 64.9999 0Z" fill="#3B3B3B"/>
<path d="M66.7597 5.09924C66.7626 5.35715 66.7423 5.61426 66.6999 5.86205C66.6538 6.06581 66.5935 6.25932 66.5199 6.43837C66.4467 6.58543 66.3625 6.71632 66.2699 6.82819C66.1894 6.93898 66.098 7.02511 66.0001 7.0825L67 9.87944C66.9264 9.93452 66.8491 9.97433 66.7699 9.9981H66.5199C66.3888 10.0117 66.259 9.95212 66.1498 9.82856C66.0337 9.69808 65.9403 9.51651 65.88 9.3031L65.2001 7.31983H64.87V9.87944H64V3.09905L64.5602 3.01426H65.0702C65.5136 2.94696 65.9577 3.11904 66.3399 3.50585C66.4758 3.68795 66.5834 3.9238 66.6534 4.19272C66.7229 4.46164 66.7529 4.75544 66.7399 5.04839L66.7597 5.09924ZM65.8901 5.16706C65.8982 5.003 65.8853 4.83794 65.8525 4.68297C65.8197 4.528 65.7676 4.38673 65.7 4.26866C65.5402 4.09123 65.3505 4.00781 65.16 4.03133H64.8401V6.38752H65.1099C65.3137 6.40375 65.5148 6.30212 65.6802 6.09934C65.7526 5.97521 65.8088 5.82645 65.8448 5.66284C65.8812 5.49923 65.8966 5.32448 65.8901 5.15009" fill="#3B3B3B"/>
<path d="M83.3118 48.2839C82.9684 48.2749 82.64 48.0434 82.398 47.6389C82.1557 47.2343 82.0189 46.6888 82.016 46.1189C82.0592 45.5021 82.1858 44.9096 82.3871 44.3858C82.588 43.8621 82.8585 43.4206 83.1772 43.0948C83.1047 42.9574 83.0321 42.7683 82.97 42.6309C82.6266 42.7248 82.2764 42.7248 81.9334 42.6309C81.6222 42.5379 81.3056 42.5033 80.9898 42.5278C81.0917 43.5415 81.0087 44.5827 80.7512 45.5175C80.5671 45.9989 80.2795 46.3464 79.9465 46.4899C79.6135 46.6334 79.2604 46.5622 78.9581 46.2907C78.8096 46.1486 78.6796 45.9591 78.5756 45.7332C78.4716 45.5072 78.3957 45.2494 78.3525 44.9745C78.3089 44.6996 78.2988 44.4131 78.3227 44.1318C78.3467 43.8505 78.4041 43.5798 78.4913 43.3353C78.7119 42.8233 79.0004 42.402 79.3347 42.1041C79.6693 41.8062 80.0404 41.6396 80.4195 41.6171V40.9986C80.0815 40.8307 79.7674 40.5501 79.4969 40.1738C79.2458 39.8544 78.9828 39.5616 78.709 39.2975C78.5006 40.2724 78.108 41.11 77.5893 41.6858C77.2895 41.9657 76.9347 42.0377 76.603 41.8865C76.2708 41.7353 75.9882 41.373 75.8167 40.8783C75.7282 40.6335 75.6703 40.3617 75.6464 40.0792C75.6229 39.7966 75.6334 39.5089 75.6779 39.2333C75.7223 38.9576 75.7999 38.6997 75.9056 38.4746C76.0113 38.2494 76.1434 38.0619 76.2935 37.9229C76.6374 37.6775 77.0102 37.5655 77.3838 37.5953C77.7575 37.6251 78.1223 37.7959 78.4498 38.0948L78.5848 37.5449C78.3496 37.1077 78.1668 36.6005 78.0456 36.0501C77.929 35.5607 77.7868 35.0892 77.6208 34.6411C77.1448 35.308 76.5527 35.7053 75.9308 35.7752C75.75 35.8019 75.568 35.766 75.3965 35.6698C75.2246 35.5736 75.0669 35.4191 74.9331 35.2163C74.7993 35.0134 74.6924 34.7666 74.619 34.4916C74.546 34.2166 74.5083 33.9193 74.5083 33.6187C74.5083 33.3182 74.546 33.0209 74.619 32.7459C74.6924 32.4708 74.7993 32.224 74.9331 32.0212C75.0669 31.8184 75.2246 31.6639 75.3965 31.5677C75.568 31.4715 75.75 31.4356 75.9308 31.4623C76.3027 31.5349 76.66 31.7456 76.9758 32.0788C77.2916 32.412 77.5583 32.8591 77.7554 33.3867L78.0456 33.0432C77.9789 32.4757 77.9789 31.8923 78.0456 31.3249C78.0938 30.8077 78.111 30.2841 78.0976 29.7613C77.9076 29.7784 77.7172 29.7784 77.5272 29.7613C77.0974 29.7883 76.6713 29.6221 76.2935 29.2802C76.1467 29.1381 76.018 28.9494 75.9148 28.7248C75.8117 28.5002 75.7366 28.2441 75.693 27.9713C75.6498 27.6985 75.6393 27.4141 75.6624 27.1346C75.6854 26.855 75.7412 26.5857 75.8272 26.342C76.0058 25.8599 76.2897 25.5105 76.6202 25.3665C76.9502 25.2225 77.3012 25.295 77.5998 25.5688C77.9017 25.9396 78.1475 26.421 78.3181 26.9754C78.4892 27.5298 78.5802 28.1423 78.5848 28.7648L78.9476 28.6788C79.0654 28.137 79.2369 27.6317 79.4554 27.1839C79.6517 26.7718 79.8287 26.3352 79.9842 25.8781C79.3963 25.5224 78.8918 24.8667 78.5433 24.0052C78.4561 23.7621 78.3991 23.4928 78.3752 23.2127C78.3513 22.9326 78.3617 22.6475 78.4049 22.374C78.4486 22.1006 78.5245 21.8442 78.628 21.6198C78.732 21.3954 78.8616 21.2075 79.0097 21.067C79.3133 20.7971 79.6676 20.7285 80.0006 20.8753C80.3336 21.0221 80.6204 21.3731 80.8032 21.8574C80.9488 22.4249 81.015 23.0395 80.9974 23.6555C80.9794 24.2714 80.8775 24.8726 80.6997 25.4141L81.0314 25.6719C81.2888 25.2729 81.592 24.9632 81.9229 24.7612C82.2131 24.562 82.4966 24.3384 82.7729 24.0911C82.3716 23.2931 82.1288 22.3088 82.0785 21.2732C82.0621 20.9739 82.0839 20.6722 82.1418 20.3874C82.2001 20.1027 82.2932 19.8411 82.4157 19.6193C82.5377 19.3976 82.687 19.2205 82.8526 19.0993C83.0187 18.9781 83.1982 18.9155 83.3793 18.9155C83.5609 18.9155 83.74 18.9781 83.906 19.0993C84.0721 19.2205 84.221 19.3976 84.3434 19.6193C84.4655 19.8411 84.559 20.1027 84.6168 20.3874C84.6747 20.6722 84.6965 20.9739 84.6806 21.2732C84.6345 21.8862 84.5061 22.4744 84.3053 22.9947C84.1044 23.515 83.836 23.9542 83.5194 24.2801C83.5919 24.4691 83.6645 24.6066 83.7266 24.7612C84.0696 24.6596 84.4206 24.6596 84.7632 24.7612C85.0756 24.8377 85.391 24.8722 85.7067 24.8643C85.6002 23.8395 85.6833 22.7853 85.9449 21.8402C86.1257 21.3614 86.4096 21.0147 86.7392 20.871C87.0684 20.7273 87.4186 20.7975 87.718 21.067C87.866 21.2075 87.9956 21.3954 88.0996 21.6198C88.2032 21.8442 88.2791 22.1006 88.3227 22.374C88.3659 22.6475 88.3764 22.9326 88.3525 23.2127C88.3286 23.4928 88.2715 23.7621 88.1843 24.0052C87.9629 24.5049 87.6744 24.9124 87.3414 25.1957C87.0084 25.479 86.6407 25.6302 86.2666 25.6376C86.2666 25.8437 86.2666 26.0327 86.2666 26.2217C86.6021 26.4001 86.9149 26.6798 87.1892 27.0465C87.4404 27.366 87.7033 27.6587 87.9771 27.9228C88.1914 26.9484 88.5873 26.1122 89.1069 25.5344C89.4076 25.2597 89.7598 25.1867 90.0919 25.3306C90.4237 25.4745 90.7097 25.8243 90.89 26.3076C90.9759 26.5513 91.0321 26.8207 91.0548 27.1002C91.0778 27.3797 91.0674 27.6641 91.0242 27.937C90.981 28.2098 90.9055 28.4658 90.8023 28.6904C90.6996 28.915 90.5708 29.1037 90.4237 29.2458C90.0802 29.4912 89.707 29.6032 89.3333 29.5735C88.9597 29.5437 88.5953 29.3729 88.2673 29.074C88.2271 29.263 88.1788 29.4467 88.1222 29.6238C88.3541 30.0652 88.5366 30.5714 88.6611 31.1188C88.7777 31.6081 88.9198 32.0795 89.0863 32.5276C89.5594 31.8641 90.1477 31.4671 90.7659 31.3937C90.9462 31.3669 91.1282 31.4027 91.3001 31.499C91.472 31.5951 91.6297 31.7496 91.7635 31.9525C91.8973 32.1553 92.0042 32.4021 92.0772 32.6772C92.1506 32.9521 92.1883 33.2495 92.1883 33.55C92.1883 33.8505 92.1506 34.1478 92.0772 34.4228C92.0042 34.6979 91.8973 34.9447 91.7635 35.1476C91.6297 35.3504 91.472 35.5048 91.3001 35.601C91.1282 35.6973 90.9462 35.7332 90.7659 35.7064C90.396 35.6302 90.0412 35.4178 89.7271 35.0848C89.413 34.7519 89.1484 34.3067 88.9517 33.782L88.6611 34.1257C88.7227 34.6939 88.7227 35.2756 88.6611 35.8439C88.6154 36.3615 88.5944 36.8844 88.599 37.4075C88.7957 37.3904 88.9932 37.3904 89.1899 37.4075C89.6135 37.378 90.0332 37.5445 90.4027 37.8886C90.7 38.1795 90.9172 38.6508 91.0082 39.2025C91.0992 39.7542 91.0569 40.343 90.89 40.8439C90.7076 41.3237 90.4232 41.6727 90.0932 41.8222C89.7632 41.9716 89.4113 41.9108 89.1069 41.6516C88.8083 41.2762 88.5642 40.7938 88.394 40.2404C88.2233 39.687 88.1306 39.0768 88.1222 38.4556L87.7595 38.5415C87.645 39.0928 87.4768 39.6094 87.2617 40.0707C87.0688 40.487 86.8923 40.9232 86.7329 41.3766C87.3188 41.7297 87.8228 42.3788 88.1742 43.2323C88.3474 43.7317 88.3948 44.3246 88.3055 44.8815C88.2158 45.4384 87.9973 45.9141 87.697 46.2048C87.3967 46.4729 87.0457 46.5403 86.7161 46.3934C86.3865 46.2465 86.1035 45.8962 85.9244 45.4144C85.781 44.8395 85.7164 44.2188 85.7361 43.5975C85.7558 42.9761 85.8594 42.37 86.0385 41.8233L85.6963 41.5999C85.4388 41.999 85.1356 42.3087 84.8047 42.5106C84.512 42.6993 84.2277 42.9233 83.9547 43.1807C84.3531 43.9803 84.5921 44.9647 84.6391 45.9987C84.6491 46.2958 84.6219 46.5932 84.5594 46.8723C84.4969 47.1513 84.4005 47.4061 84.2759 47.6205C84.1514 47.835 84.0017 48.0045 83.8356 48.1187C83.6699 48.2329 83.4917 48.2891 83.3118 48.2839ZM83.4984 43.7993C83.2456 44.0486 83.0292 44.3873 82.8644 44.7912C82.6996 45.1951 82.5905 45.6543 82.5448 46.1361C82.5448 46.4779 82.6266 46.8057 82.7725 47.0474C82.9185 47.289 83.116 47.4247 83.3223 47.4247C83.5286 47.4247 83.7261 47.289 83.8721 47.0474C84.018 46.8057 84.0998 46.4779 84.0998 46.1361C84.0499 45.2728 83.8402 44.4565 83.4984 43.7993ZM86.4842 42.3216C86.3425 42.7486 86.2574 43.2207 86.2339 43.7066C86.2108 44.1924 86.2502 44.6808 86.3496 45.1395C86.4532 45.4227 86.618 45.63 86.8105 45.7193C87.003 45.8086 87.2089 45.7734 87.3863 45.6207C87.5532 45.4432 87.6752 45.17 87.7289 44.8532C87.7826 44.5363 87.7637 44.1979 87.6765 43.9024C87.385 43.1847 86.9585 42.6469 86.4637 42.3731L86.4842 42.3216ZM80.43 42.6824C80.1377 42.6922 79.8496 42.8043 79.585 43.0117C79.3208 43.219 79.086 43.5167 78.8956 43.8852C78.7983 44.1774 78.774 44.5214 78.8285 44.8429C78.8826 45.1644 79.0113 45.4375 79.1858 45.6035C79.3648 45.7444 79.5682 45.7733 79.7586 45.6848C79.9494 45.5964 80.1142 45.3966 80.2228 45.1223C80.438 44.349 80.4963 43.4808 80.3885 42.6481L80.43 42.6824ZM83.5609 42.6481C83.8696 42.3438 84.1916 42.0795 84.525 41.8577C84.7301 41.7245 84.9251 41.5514 85.1054 41.3422C84.9024 41.1376 84.7292 40.862 84.5976 40.5346C84.5112 40.2169 84.499 39.8576 84.5636 39.526C84.6278 39.1944 84.7636 38.914 84.9456 38.7389C85.1272 38.5638 85.3415 38.5065 85.547 38.5779C85.7529 38.6493 85.9353 38.8444 86.059 39.1257C86.1651 39.4306 86.2117 39.7818 86.1932 40.1321C86.1748 40.4824 86.0917 40.8148 85.9554 41.0845C86.0167 41.1422 86.0833 41.1828 86.1525 41.2048C86.3287 40.6864 86.5299 40.1922 86.7539 39.7271C86.8952 39.4448 87.0139 39.1329 87.1061 38.7992C86.8688 38.7937 86.6348 38.6997 86.4222 38.5243C86.2314 38.3347 86.093 38.0288 86.0368 37.6723C85.9806 37.3158 86.0112 36.937 86.1215 36.6171C86.2377 36.3048 86.4213 36.0776 86.6352 35.9819C86.8491 35.8861 87.0768 35.9289 87.2722 36.1016C87.442 36.2853 87.5779 36.5426 87.6656 36.8455C87.7536 37.1484 87.7893 37.4854 87.7696 37.8199C87.8417 37.8377 87.9151 37.8377 87.9876 37.8199C87.9734 37.2444 87.9977 36.6682 88.0602 36.1016C88.0912 35.7311 88.0912 35.3552 88.0602 34.9847C87.8568 35.1759 87.6299 35.2875 87.3963 35.3112C87.1711 35.3112 86.9548 35.1628 86.7954 34.8985C86.636 34.6343 86.5463 34.276 86.5463 33.9022C86.5463 33.5286 86.636 33.1702 86.7954 32.9059C86.9548 32.6418 87.1711 32.4933 87.3963 32.4933C87.6077 32.5072 87.8115 32.6215 87.9843 32.8226C88.1575 33.0237 88.2917 33.3031 88.3709 33.6273L88.537 33.404C88.3437 32.8926 88.1805 32.3518 88.0497 31.7888C87.9633 31.4554 87.8559 31.1386 87.728 30.8438C87.6043 31.1748 87.4383 31.4564 87.2412 31.6685C87.0449 31.844 86.8155 31.8865 86.6008 31.7872C86.3861 31.6878 86.2033 31.4543 86.0905 31.1359C85.9873 30.8147 85.9546 30.4446 85.9969 30.0878C86.0611 29.7316 86.2012 29.4262 86.3911 29.2286C86.5811 29.0758 86.7929 29.0125 87.003 29.0458C87.2135 29.0791 87.4139 29.2078 87.5829 29.4176L87.6555 29.0912C87.3435 28.7909 87.0453 28.4521 86.7639 28.0774C86.5836 27.8581 86.3928 27.6628 86.194 27.4932C86.2008 27.889 86.1433 28.2806 86.028 28.6273C85.9118 28.9394 85.7286 29.1675 85.5155 29.2662C85.3025 29.3649 85.0744 29.3269 84.8773 29.1599C84.7821 29.0676 84.6986 28.945 84.6315 28.7991C84.5648 28.6532 84.5162 28.4869 84.4881 28.3097C84.4604 28.1325 84.4537 27.948 84.4688 27.7665C84.4839 27.5852 84.5208 27.4106 84.5766 27.2527C84.681 26.961 84.8353 26.727 85.0198 26.5802C85.2044 26.4335 85.4107 26.3805 85.6132 26.4279C85.6078 26.3078 85.6078 26.1872 85.6132 26.0671C85.2664 26.0809 84.9192 26.0406 84.5766 25.9468C84.3568 25.8958 84.1333 25.8958 83.9132 25.9468C84.0327 26.2871 84.1002 26.6703 84.1103 27.0636C84.1103 27.4374 84.0205 27.7957 83.8612 28.0599C83.7018 28.3242 83.4854 28.4726 83.2602 28.4726C83.0346 28.4726 82.8187 28.3242 82.6589 28.0599C82.4995 27.7957 82.4102 27.4374 82.4102 27.0636C82.4102 26.7106 82.476 26.3661 82.5985 26.077C82.7209 25.7881 82.8937 25.5686 83.0942 25.4485L82.97 25.1736C82.6593 25.487 82.333 25.7572 81.9955 25.9811C81.7946 26.1181 81.6034 26.291 81.4251 26.4966C81.6273 26.6971 81.7975 26.9738 81.9229 27.3042C81.9778 27.4641 82.0135 27.6406 82.0269 27.8234C82.0408 28.0062 82.0324 28.1917 82.0026 28.3691C81.9728 28.5465 81.9217 28.7124 81.8529 28.857C81.7841 29.0015 81.6986 29.122 81.6013 29.2115C81.475 29.347 81.327 29.4187 81.1765 29.4176C81.0284 29.4181 80.8833 29.353 80.7558 29.2292C80.6279 29.1053 80.5227 28.9271 80.4506 28.7131C80.3466 28.4066 80.3013 28.0544 80.3218 27.7041C80.3424 27.3537 80.4271 27.0223 80.5646 26.7544L80.3679 26.6341C80.1843 27.1489 79.98 27.6426 79.7561 28.1118C79.6261 28.4077 79.5087 28.7176 79.4038 29.0396C79.6412 29.0451 79.8752 29.1391 80.0878 29.3146C80.1859 29.4047 80.2715 29.5276 80.3394 29.6755C80.4069 29.8234 80.4556 29.993 80.482 30.1737C80.5118 30.3477 80.521 30.5299 80.5089 30.7097C80.4963 30.8896 80.4623 31.0637 80.4095 31.2218C80.2962 31.5403 80.1134 31.7737 79.8987 31.8731C79.684 31.9725 79.4546 31.9299 79.2588 31.7545C79.0826 31.5814 78.9413 31.3259 78.8528 31.0202C78.7643 30.7145 78.7325 30.3721 78.761 30.0363C78.6884 30.0255 78.6155 30.0255 78.5433 30.0363C78.5475 30.6113 78.5232 31.186 78.4708 31.7545C78.4502 32.1202 78.4502 32.4884 78.4708 32.8541C78.6771 32.6604 78.9078 32.5487 79.1447 32.5276C79.3699 32.5276 79.5863 32.6761 79.7456 32.9403C79.905 33.2046 79.9947 33.5629 79.9947 33.9366C79.9947 34.3103 79.905 34.6686 79.7456 34.9329C79.5863 35.1971 79.3699 35.3456 79.1447 35.3456C78.9317 35.3455 78.7237 35.2365 78.5492 35.0336C78.3748 34.8306 78.2427 34.5436 78.1701 34.2115L78.004 34.4349C78.1911 34.9519 78.3542 35.4918 78.4913 36.0501C78.5718 36.39 78.6763 36.713 78.8025 37.0123C78.9258 36.6761 79.0923 36.3887 79.2898 36.1704C79.4852 35.9977 79.7129 35.9548 79.9264 36.0506C80.1402 36.1463 80.3239 36.3735 80.4405 36.6858C80.5504 37.0104 80.5793 37.3933 80.5214 37.7529C80.4631 38.1125 80.3227 38.4202 80.1293 38.6102C79.9423 38.768 79.7326 38.8354 79.5238 38.8051C79.3145 38.7747 79.1149 38.6476 78.9476 38.4384L78.8541 38.7649C79.1673 39.0631 79.4651 39.4021 79.7456 39.7786C79.9259 40.0027 80.1205 40.1929 80.3264 40.3456C80.326 39.951 80.3826 39.562 80.4921 39.2116C80.6103 38.9022 80.7944 38.6787 81.0083 38.5861C81.2218 38.4936 81.4486 38.5391 81.6428 38.7133C81.8353 38.9004 81.9758 39.2037 82.0357 39.5594C82.0957 39.9152 82.0701 40.2956 81.9644 40.6206C81.8516 40.8998 81.6965 41.1247 81.5145 41.2726C81.332 41.4204 81.1299 41.486 80.9278 41.4625C80.9177 41.5764 80.9177 41.6922 80.9278 41.8061C81.2746 41.8003 81.6214 41.8405 81.9644 41.9264C82.185 41.9601 82.4073 41.9601 82.6278 41.9264C82.5138 41.5823 82.4467 41.2011 82.4308 40.8096C82.4308 40.4359 82.5205 40.0775 82.6798 39.8133C82.8392 39.549 83.0556 39.4006 83.2808 39.4006C83.5064 39.4006 83.7224 39.549 83.8821 39.8133C84.0415 40.0775 84.1308 40.4359 84.1308 40.8096C84.1308 41.1627 84.065 41.5072 83.9425 41.7962C83.8205 42.0852 83.6473 42.3046 83.4468 42.4247C83.4468 42.4247 83.5194 42.5278 83.571 42.6309L83.5609 42.6481ZM83.2602 40.191C83.2183 40.191 83.1772 40.2048 83.1386 40.2318C83.1005 40.2588 83.0657 40.2983 83.0363 40.348C83.0074 40.3977 82.9847 40.4566 82.9696 40.5211C82.9549 40.5857 82.9478 40.6545 82.9491 40.7236C82.9629 41.0463 83.0308 41.356 83.1462 41.6171C83.2661 41.5594 83.3726 41.4434 83.4519 41.2841C83.5316 41.1248 83.5802 40.9295 83.5919 40.7236C83.5919 40.6522 83.5831 40.5815 83.5664 40.5158C83.5496 40.4499 83.5253 40.3905 83.4942 40.3408C83.4632 40.2911 83.4267 40.2523 83.3865 40.2265C83.3462 40.2008 83.303 40.1887 83.2602 40.191ZM88.568 38.5586C88.5693 39.0423 88.6347 39.5195 88.7605 39.9561C88.8859 40.3928 89.0679 40.7781 89.2935 41.0845C89.382 41.1691 89.4797 41.224 89.5812 41.246C89.6822 41.268 89.7854 41.2569 89.8839 41.213C89.9825 41.1691 90.0752 41.0934 90.1561 40.9903C90.237 40.8872 90.3054 40.7586 90.3561 40.612C90.4073 40.4653 90.4404 40.3034 90.4538 40.1356C90.4668 39.9676 90.4601 39.797 90.4337 39.6335C90.4073 39.47 90.3616 39.3166 90.2995 39.1824C90.237 39.048 90.1595 38.9354 90.071 38.8508C89.7778 38.5956 89.4482 38.4768 89.1174 38.5071H88.568V38.5586ZM77.0194 38.5071C76.8177 38.5018 76.6185 38.5785 76.4386 38.7305C76.3501 38.8151 76.2725 38.9278 76.2105 39.0621C76.1484 39.1964 76.1027 39.3497 76.0763 39.5132C76.0498 39.6767 76.0427 39.8474 76.0561 40.0152C76.0696 40.1831 76.1027 40.345 76.1538 40.4917C76.2046 40.6383 76.2725 40.7669 76.3539 40.8701C76.4348 40.9732 76.5271 41.0488 76.626 41.0927C76.7246 41.1366 76.8273 41.1478 76.9288 41.1257C77.0303 41.1037 77.1276 41.0488 77.2165 40.9642C77.6388 40.4593 77.9571 39.7515 78.1286 38.9367C77.7793 38.6756 77.4023 38.5297 77.0194 38.5071ZM85.313 39.1429C85.2547 39.1383 85.1968 39.16 85.1457 39.2057C85.0941 39.2514 85.0513 39.3194 85.0215 39.4023C84.9917 39.4853 84.9758 39.5801 84.9762 39.6766C84.9762 39.7731 84.9922 39.8678 85.0224 39.9504C85.1352 40.2079 85.2849 40.4147 85.4581 40.5518C85.5474 40.4007 85.6074 40.2082 85.6296 39.9997C85.6518 39.791 85.635 39.5762 85.5822 39.3834C85.5537 39.3082 85.5138 39.2465 85.4665 39.2043C85.4195 39.1622 85.3662 39.141 85.313 39.1429ZM80.7617 40.3456C80.8838 40.3898 81.0104 40.3761 81.1278 40.3062C81.2452 40.2363 81.3484 40.113 81.4251 39.9504C81.4675 39.8268 81.4792 39.6807 81.4578 39.543C81.4369 39.4052 81.384 39.2864 81.3111 39.2116C81.2738 39.1753 81.2327 39.1518 81.1899 39.1425C81.1471 39.1333 81.1035 39.1384 81.062 39.1577C81.02 39.1769 80.9815 39.2098 80.9475 39.2545C80.9139 39.2992 80.8858 39.3548 80.8653 39.4178C80.7831 39.7071 80.7475 40.0267 80.7617 40.3456ZM86.8365 36.5999C86.7795 36.5984 86.7228 36.6233 86.6734 36.6718C86.6239 36.7204 86.5836 36.7906 86.5568 36.8748C86.5144 36.9985 86.5027 37.1446 86.5241 37.2823C86.545 37.4201 86.5979 37.5389 86.6709 37.6136C86.8461 37.7463 87.0382 37.8054 87.2307 37.7855C87.2668 37.5814 87.263 37.3637 87.2202 37.1633C87.1774 36.9629 87.0977 36.7898 86.9921 36.6686C86.9417 36.641 86.8872 36.641 86.8365 36.6686V36.5999ZM79.0927 37.4762C79.1845 37.6172 79.2986 37.7116 79.4219 37.7482C79.5447 37.7847 79.6718 37.7618 79.7871 37.6824C79.8534 37.605 79.9004 37.4903 79.9192 37.3596C79.9377 37.2289 79.9272 37.0914 79.8886 36.973C79.8505 36.8547 79.7876 36.7636 79.7117 36.717C79.6353 36.6704 79.5519 36.6715 79.4764 36.7202C79.3108 36.9125 79.1787 37.1731 79.0927 37.4762ZM89.2625 33.4727C89.4118 33.8898 89.6147 34.2475 89.8563 34.5207C90.0982 34.7937 90.3733 34.9756 90.6623 35.0534C90.8682 35.0534 91.0661 34.9177 91.212 34.676C91.3576 34.4343 91.4398 34.1065 91.4398 33.7647C91.4398 33.423 91.3576 33.0952 91.212 32.8536C91.0661 32.6119 90.8682 32.4761 90.6623 32.4761C90.1439 32.5554 89.6541 32.9042 89.2625 33.4727ZM75.7857 32.4761C75.5793 32.4761 75.3818 32.6119 75.2359 32.8536C75.0899 33.0952 75.0082 33.423 75.0082 33.7647C75.0082 34.1065 75.0899 34.4343 75.2359 34.676C75.3818 34.9177 75.5793 35.0534 75.7857 35.0534C76.3015 34.9777 76.7887 34.6282 77.175 34.0569C77.0307 33.6363 76.8307 33.2755 76.59 33.0017C76.3493 32.7278 76.0742 32.5481 75.7857 32.4761ZM87.3758 33.2321C87.328 33.218 87.2789 33.2214 87.2319 33.242C87.1854 33.2627 87.1418 33.3001 87.1045 33.3517C87.0671 33.4033 87.0374 33.4678 87.0168 33.5407C86.9963 33.6135 86.9858 33.693 86.9858 33.7733C86.9858 33.8538 86.9963 33.9332 87.0168 34.0061C87.0374 34.0789 87.0671 34.1434 87.1045 34.195C87.1418 34.2466 87.1854 34.2841 87.2319 34.3048C87.2789 34.3254 87.328 34.3288 87.3758 34.3146C87.5704 34.2921 87.7574 34.1789 87.9147 33.9882C87.8807 33.7875 87.8111 33.6084 87.715 33.4738C87.619 33.3391 87.5008 33.255 87.3758 33.2321ZM78.5123 33.5586C78.6364 34.0225 78.8335 34.3146 79.0407 34.3146C79.0885 34.3288 79.1376 34.3254 79.1845 34.3048C79.2315 34.2841 79.2751 34.2466 79.312 34.195C79.3493 34.1434 79.3791 34.0789 79.3997 34.0061C79.4202 33.9332 79.4311 33.8538 79.4311 33.7733C79.4311 33.693 79.4202 33.6135 79.3997 33.5407C79.3791 33.4678 79.3493 33.4033 79.312 33.3517C79.2751 33.3001 79.2315 33.2627 79.1845 33.242C79.1376 33.2214 79.0885 33.218 79.0407 33.2321C78.8499 33.2579 78.6666 33.3708 78.5123 33.5586ZM86.878 29.7613C86.8038 29.7534 86.7304 29.79 86.6709 29.8644C86.6323 29.897 86.5983 29.9431 86.5715 29.9995C86.5446 30.0558 86.5253 30.1211 86.5153 30.1908C86.4897 30.3309 86.4897 30.4804 86.5153 30.6204C86.5585 30.7401 86.6285 30.827 86.7098 30.8623C86.7912 30.8977 86.8776 30.8787 86.9506 30.8094C87.1137 30.6318 87.2428 30.3817 87.3238 30.0878C87.1904 29.8966 87.0231 29.7821 86.847 29.7613H86.878ZM79.1757 29.6754C79.1451 29.8815 79.1527 30.0978 79.1971 30.2968C79.2416 30.4958 79.3204 30.6683 79.4244 30.7923C79.4617 30.8285 79.5028 30.852 79.5456 30.8613C79.5888 30.8706 79.632 30.8654 79.6739 30.8462C79.7154 30.8269 79.754 30.794 79.788 30.7492C79.8215 30.7045 79.8496 30.6491 79.8702 30.586C79.9121 30.465 79.9234 30.3216 79.902 30.1866C79.8807 30.0517 79.8282 29.936 79.7561 29.8644C79.5779 29.7093 79.3762 29.6436 79.1757 29.6754ZM76.7498 26.3248C76.6114 26.3277 76.4759 26.3892 76.3564 26.5035C76.2365 26.6178 76.1362 26.7811 76.0654 26.9778C75.971 27.2709 75.9484 27.6134 76.0025 27.9337C76.0566 28.2539 76.1832 28.527 76.356 28.696C76.6483 28.9553 76.9787 29.0743 77.3096 29.0396C77.4924 29.0567 77.6761 29.0567 77.8589 29.0396C77.8518 28.5578 77.7835 28.084 77.6585 27.6488C77.5331 27.2137 77.3545 26.8269 77.1335 26.5138C77.0207 26.3874 76.8856 26.327 76.7498 26.342V26.3248ZM88.3088 28.5242C88.5638 28.7542 88.8448 28.8928 89.1341 28.9313C89.4235 28.9698 89.7145 28.9072 89.9884 28.7476C90.1611 28.5785 90.2878 28.3054 90.3419 27.9852C90.396 27.665 90.3733 27.3224 90.2786 27.0293C90.1699 26.755 90.0051 26.5552 89.8148 26.4668C89.6239 26.3783 89.4206 26.4073 89.2419 26.5482C88.8326 27.0596 88.5227 27.7584 88.3504 28.5585L88.3088 28.5242ZM85.5617 27.1496C85.4589 27.1332 85.3553 27.161 85.261 27.2302C85.1662 27.2994 85.0844 27.4078 85.0224 27.5448C85.0047 27.6095 84.9955 27.6798 84.9955 27.7509C84.9955 27.822 85.0047 27.8924 85.0224 27.9572C85.0492 28.0932 85.1046 28.2089 85.1779 28.2836C85.253 28.347 85.3394 28.3611 85.4203 28.3228C85.5013 28.2845 85.57 28.1968 85.6132 28.0774C85.703 27.792 85.7428 27.4705 85.7273 27.1496H85.5927H85.5617ZM81.0209 26.9433C80.8448 27.3729 80.7823 27.7681 80.9068 28.0774C80.9337 28.1616 80.9739 28.2318 81.0234 28.2804C81.0729 28.3289 81.1295 28.3538 81.1869 28.3523C81.2448 28.3764 81.3052 28.3764 81.3631 28.3523C81.4369 28.2743 81.4897 28.1526 81.5107 28.012C81.5321 27.8713 81.5199 27.7226 81.4771 27.5963C81.3421 27.3673 81.1886 27.1707 81.0209 27.0121V26.9433ZM83.3844 26.0843C83.2678 26.1447 83.1634 26.2594 83.0845 26.4146C83.0057 26.5698 82.9549 26.7592 82.9386 26.9606C82.9373 27.0305 82.9445 27.1003 82.9591 27.1657C82.9742 27.2313 82.9965 27.2913 83.0254 27.3423C83.0543 27.3934 83.0891 27.4345 83.1277 27.4634C83.1659 27.4922 83.2074 27.5082 83.2498 27.5104C83.3378 27.5104 83.4221 27.4525 83.4842 27.3494C83.5467 27.2463 83.5815 27.1064 83.5815 26.9606C83.5571 26.6474 83.49 26.3475 83.3844 26.0843ZM79.5385 21.9434C79.4018 21.941 79.2671 21.9984 79.148 22.1098C79.0294 22.2211 78.93 22.3825 78.8608 22.5776C78.7912 22.7728 78.7543 22.9948 78.753 23.2213C78.7517 23.4477 78.787 23.6707 78.8541 23.8678C79.1564 24.5641 79.5796 25.0915 80.0673 25.3799C80.209 24.9528 80.2941 24.4807 80.3176 23.9949C80.3407 23.509 80.3013 23.0206 80.2019 22.5619C80.1377 22.3657 80.0413 22.2036 79.9238 22.0942C79.8064 21.9848 79.6731 21.9325 79.5385 21.9434ZM86.9715 21.9434C86.834 21.9404 86.6985 21.9997 86.5798 22.1147C86.4612 22.2297 86.3635 22.3962 86.2976 22.5962C86.0846 23.3825 86.0234 24.2585 86.1215 25.1049C86.415 25.1012 86.7044 24.9881 86.9682 24.7739C87.2319 24.5598 87.4634 24.2501 87.6454 23.8678C87.7436 23.5776 87.7691 23.2352 87.7171 22.9139C87.6647 22.5927 87.5385 22.3183 87.3653 22.1495C87.2458 22.0352 87.1095 21.9759 86.9715 21.9777V21.9434ZM83.2498 20.2595C83.1478 20.2617 83.0468 20.2973 82.9528 20.364C82.8593 20.4309 82.7742 20.5278 82.7029 20.649C82.6316 20.7703 82.5758 20.9136 82.5377 21.0708C82.4999 21.228 82.4811 21.3961 82.4827 21.5653C82.5318 22.4288 82.7419 23.2456 83.0841 23.9021C83.3378 23.6546 83.555 23.3165 83.7198 22.9123C83.8851 22.508 83.9937 22.0479 84.0377 21.5653C84.039 21.3932 84.0197 21.2223 83.9807 21.0628C83.9413 20.9034 83.8834 20.7585 83.81 20.6368C83.7366 20.515 83.649 20.419 83.5529 20.3541C83.4569 20.2893 83.3538 20.2571 83.2498 20.2595Z" fill="#3B3B3B"/>
<path d="M80.3484 33.4703C80.3756 32.7491 80.4956 32.046 80.7006 31.4084H81.7373C81.645 32.0848 81.5997 32.7767 81.6027 33.4703H80.3484Z" fill="#3B3B3B"/>
<path d="M81.7799 36.5804C81.8663 37.1811 82.0026 37.7593 82.1842 38.2986C81.6654 37.9409 81.2192 37.3447 80.8984 36.5804H81.7799Z" fill="#3B3B3B"/>
<path d="M81.5597 33.9878C81.5765 34.6908 81.6214 35.3911 81.6947 36.084H80.6581C80.4518 35.4348 80.3318 34.7201 80.3054 33.9878H81.5597Z" fill="#3B3B3B"/>
<path d="M80.8984 30.8756C81.2142 30.103 81.6617 29.5046 82.1842 29.1573C82.0018 29.696 81.8655 30.2743 81.7799 30.8756H80.8984Z" fill="#3B3B3B"/>
<path d="M84.3501 29.2265C84.8693 29.5826 85.3155 30.1791 85.6354 30.9448H84.7648C84.6902 30.3352 84.5497 29.7532 84.3501 29.2265Z" fill="#3B3B3B"/>
<path d="M85.6552 36.5804C85.3331 37.3428 84.8874 37.9385 84.3699 38.2986C84.5561 37.763 84.6924 37.1837 84.7741 36.5804H85.6552Z" fill="#3B3B3B"/>
<path d="M86.2036 33.9878C86.1767 34.7243 86.0488 35.4411 85.8308 36.084H84.7937C84.8772 35.3935 84.9224 34.6919 84.9287 33.9878H86.2036Z" fill="#3B3B3B"/>
<path d="M85.8527 31.4084C86.0645 32.0424 86.1882 32.7469 86.2155 33.4703H85.0027C84.9901 32.7782 84.9448 32.0888 84.8677 31.4084H85.8527Z" fill="#3B3B3B"/>
<path d="M82.7022 28.9686L83.1065 28.8655V30.8758H82.0698C82.1835 30.1712 82.3927 29.519 82.6817 28.9686" fill="#3B3B3B"/>
<path d="M81.8813 33.4703C81.8906 32.7779 81.9354 32.088 82.016 31.4084H83.1256V33.4703H81.8813Z" fill="#3B3B3B"/>
<path d="M82.016 36.0479C81.9308 35.3637 81.886 34.6675 81.8813 33.9688H83.1256V36.0479H82.016Z" fill="#3B3B3B"/>
<path d="M83.1269 38.5912H82.7122C82.4279 38.0381 82.2224 37.3864 82.1108 36.684H83.1475L83.1269 38.5912Z" fill="#3B3B3B"/>
<path d="M84.4529 36.5808C84.4927 36.8312 84.4948 37.0939 84.4596 37.3461C84.4244 37.5983 84.3527 37.8325 84.2504 38.0286C84.1485 38.2248 84.0193 38.3769 83.8742 38.4718C83.7287 38.5669 83.5718 38.6019 83.4163 38.5739V36.5636H84.4529V36.5808Z" fill="#3B3B3B"/>
<path d="M84.6823 33.9878C84.6739 34.6926 84.6252 35.3944 84.5372 36.084H83.428V33.9878H84.6823Z" fill="#3B3B3B"/>
<path d="M84.5379 31.4084C84.6226 32.0873 84.6713 32.7773 84.683 33.4703H83.4392V31.4084H84.5379Z" fill="#3B3B3B"/>
<path d="M83.4267 28.8655C83.5823 28.8655 83.7169 28.8655 83.852 28.9686C84.1359 29.5216 84.3414 30.1734 84.4529 30.8758H83.4163V28.8655H83.4267Z" fill="#3B3B3B"/>
<path d="M1.49762 37.5608C1.73031 37.859 1.98035 38.1179 2.24403 38.3339C2.56474 38.6032 2.92143 38.7333 3.28072 38.7119C3.43104 38.7194 3.5812 38.6905 3.72648 38.626C3.86226 38.575 3.98964 38.4753 4.09969 38.3339C4.21329 38.2027 4.30872 38.0328 4.3796 37.8357C4.45613 37.6047 4.49205 37.3428 4.48327 37.0796C4.4866 36.8076 4.44347 36.5395 4.35886 36.3064C4.28379 36.0838 4.17702 35.8951 4.04785 35.7566C3.90577 35.5999 3.75258 35.473 3.59173 35.3786L3.06301 35.0521C2.83494 34.9318 2.58614 34.7771 2.35807 34.6225C2.13105 34.4731 1.9181 34.2706 1.72569 34.0212C1.53222 33.7609 1.37635 33.4321 1.26955 33.059C1.13678 32.6106 1.07268 32.1148 1.08294 31.6156C1.06964 31.0879 1.14502 30.5645 1.30065 30.1036C1.43713 29.6695 1.62798 29.2887 1.86045 28.9867C2.10948 28.6947 2.38633 28.474 2.67944 28.3338C3.00017 28.1863 3.33143 28.1111 3.66428 28.1105C3.88696 28.1082 4.10921 28.1428 4.32776 28.2135C4.51564 28.2513 4.70011 28.3262 4.8772 28.4369L5.29189 28.6947C5.37966 28.767 5.46298 28.8533 5.54069 28.9524C5.63186 29.0229 5.70931 29.1343 5.76429 29.274C5.81923 29.4136 5.8495 29.576 5.85168 29.7427C5.83386 29.9491 5.79159 30.1477 5.7273 30.3269C5.64352 30.5937 5.53507 30.8373 5.40591 31.0486C5.18962 30.7845 4.95673 30.5597 4.71133 30.3784C4.42558 30.1589 4.11399 30.0475 3.79906 30.0521C3.66819 30.0267 3.53598 30.0267 3.40511 30.0521C3.27385 30.0902 3.14757 30.1657 3.03191 30.2754C2.9221 30.3859 2.82689 30.532 2.752 30.7049C2.68054 30.9017 2.64458 31.1283 2.64834 31.3579C2.64676 31.587 2.68257 31.8126 2.752 32.0108C2.82679 32.2039 2.92581 32.3679 3.04228 32.4919C3.16668 32.6122 3.31181 32.7496 3.46731 32.8699L3.96493 33.1964L4.66987 33.6431C4.90202 33.8009 5.11866 34.0151 5.3126 34.2789C5.50928 34.5428 5.67153 34.8701 5.78949 35.2411C5.91484 35.6931 5.97518 36.1872 5.96571 36.6844C5.97938 37.2745 5.91203 37.862 5.76874 38.4027C5.63827 38.8772 5.4473 39.2993 5.20894 39.6398C4.95383 39.9764 4.66156 40.2273 4.3485 40.3786C3.99679 40.564 3.62893 40.6511 3.25998 40.6363C2.83323 40.6478 2.40759 40.5611 1.99523 40.3786C1.75457 40.2646 1.52177 40.1091 1.30065 39.9147C1.21334 39.8217 1.1391 39.6986 1.08294 39.5539C1.02815 39.4227 0.999193 39.2666 1.00002 39.1071C1.0062 38.8433 1.05645 38.5876 1.14515 38.3683C1.27992 38.0762 1.39395 37.8013 1.49762 37.5435" fill="#3B3B3B"/>
<path d="M8.73438 30.3783H6.47443C6.46588 30.2642 6.46588 30.1488 6.47443 30.0347V29.7082C6.47733 29.3842 6.55101 29.0729 6.68176 28.8319C6.7754 28.6804 6.88804 28.5649 7.01167 28.4936C7.13529 28.4223 7.26689 28.397 7.39706 28.4195H12.4768C12.4768 28.6773 12.4768 28.935 12.4768 29.21C12.4736 29.5205 12.4038 29.819 12.2799 30.0519C12.1859 30.1959 12.0742 30.3044 11.9525 30.3696C11.8308 30.4349 11.7019 30.4554 11.5749 30.4299H10.2168V40.3613H8.73438V30.3783Z" fill="#3B3B3B"/>
<path d="M16.5821 40.3102L15.9601 37.3892H13.4617L12.8707 40.3102H11.3987L13.8971 28.5403L14.2599 28.3685C14.4288 28.3408 14.599 28.3408 14.7679 28.3685H15.0167C15.1186 28.3882 15.2172 28.4408 15.3069 28.5231C15.4083 28.5946 15.4974 28.7068 15.5661 28.8496C15.659 29.0087 15.7267 29.2035 15.7631 29.4166L18.0853 40.3274H16.5821V40.3102ZM14.7471 30.5506L13.7105 35.7054H15.6491L14.7471 30.5506Z" fill="#3B3B3B"/>
<path d="M24.6367 40.3094H23.372L20.2619 32.4914V40.3265H18.8521V28.4364H19.1423C19.2631 28.4197 19.3844 28.4197 19.5052 28.4364C19.6958 28.4293 19.8844 28.5001 20.0546 28.6426C20.2002 28.7917 20.3213 28.9983 20.4071 29.2439L23.1957 36.7355V28.5223L23.4653 28.4364H23.6726C23.7795 28.4186 23.8872 28.4186 23.994 28.4364C24.1032 28.4612 24.2068 28.5322 24.2946 28.6426C24.3908 28.7452 24.4694 28.8872 24.5227 29.0549C24.5897 29.2726 24.6218 29.5152 24.616 29.7594V40.3781L24.6367 40.3094Z" fill="#3B3B3B"/>
<path d="M31.8225 34.1414C31.8209 34.9509 31.7475 35.7557 31.6047 36.5299C31.4799 37.2461 31.2683 37.9126 30.9828 38.4886C30.7011 39.0567 30.3471 39.5143 29.9461 39.8288C29.4609 40.1672 28.938 40.3312 28.4118 40.3099H26.1104V28.4885C26.5022 28.396 26.8966 28.3386 27.2922 28.3167H28.1319C28.7423 28.2747 29.3517 28.4324 29.9253 28.7806C30.3589 29.0632 30.7486 29.5036 31.0657 30.0692C31.3532 30.5988 31.5594 31.2353 31.667 31.9249C31.7927 32.6511 31.8556 33.4032 31.8536 34.1586L31.8225 34.1414ZM30.34 34.1586C30.3424 33.6392 30.3112 33.1207 30.2467 32.6122C30.1833 32.1534 30.071 31.7169 29.915 31.3236C29.7472 30.953 29.5262 30.6577 29.2722 30.4645C28.9441 30.2375 28.591 30.1263 28.2356 30.138H27.5825V38.3511H28.1733C28.5271 38.3666 28.8792 38.2674 29.21 38.0591C29.4776 37.8712 29.7101 37.5688 29.8839 37.1828C30.0494 36.7772 30.1656 36.3219 30.226 35.8426C30.2813 35.2744 30.309 34.6998 30.3089 34.1243" fill="#3B3B3B"/>
<path d="M37.0765 40.3107L36.4545 37.3897H33.956L33.3652 40.3107H31.8931L34.3915 28.5408L34.7647 28.369C34.9301 28.3406 35.0969 28.3406 35.2623 28.369H35.5214C35.62 28.3892 35.7152 28.4417 35.8014 28.5236C35.9028 28.5951 35.9918 28.7073 36.0605 28.8501C36.1501 29.0133 36.2173 29.2067 36.2575 29.4171L38.5797 40.3279H37.0765V40.3107ZM35.2312 30.5511L34.1945 35.7058H36.1331L35.2312 30.5511Z" fill="#3B3B3B"/>
<path d="M44.3554 31.8052C44.3613 32.2467 44.3265 32.6872 44.2514 33.111C44.1768 33.468 44.0757 33.8084 43.9511 34.1248C43.8262 34.3979 43.6756 34.6358 43.5054 34.8293C43.3485 35.0044 43.1816 35.154 43.0076 35.276L44.7802 40.2073C44.6448 40.3098 44.5018 40.3848 44.3554 40.4307C44.2103 40.4553 44.0648 40.4553 43.9197 40.4307C43.6849 40.4358 43.453 40.3411 43.2462 40.1558C43.0424 39.9084 42.8728 39.5921 42.7484 39.228L41.5251 35.7915H40.9342V40.2588H39.4414V28.403L40.4263 28.2656H41.3592C42.1558 28.1612 42.9522 28.4672 43.64 29.1419C43.882 29.4467 44.074 29.8468 44.199 30.3059C44.324 30.765 44.3776 31.2685 44.3554 31.7708V31.8052ZM42.8003 31.9942C42.8172 31.7022 42.7933 31.4076 42.7303 31.1334C42.6674 30.8593 42.5672 30.6129 42.4374 30.4134C42.1488 30.0989 41.808 29.9426 41.4629 29.9666H41.1312H40.8824V34.0904H41.4008C41.774 34.1297 42.143 33.9401 42.4374 33.5577C42.5726 33.3563 42.6776 33.1055 42.7442 32.8252C42.8107 32.5449 42.837 32.2426 42.821 31.9426" fill="#3B3B3B"/>
<path d="M51.3734 34.1408C51.3784 34.9485 51.3122 35.7532 51.1767 36.5291C51.0518 37.2454 50.84 37.9119 50.5544 38.4879C50.273 39.0559 49.9187 39.5136 49.5178 39.8281C49.0254 40.1668 48.4958 40.3307 47.9628 40.3092H45.6614V28.4878C46.0531 28.3966 46.4477 28.3392 46.8431 28.3159H47.6932C48.3037 28.2767 48.9126 28.4342 49.4867 28.7799C49.9174 29.0615 50.3041 29.5023 50.6169 30.0686C50.9033 30.6016 51.1126 31.2364 51.2283 31.9243C51.3462 32.6528 51.4053 33.4038 51.4044 34.158L51.3734 34.1408ZM49.912 34.158C49.9178 33.6361 49.8797 33.1156 49.7979 32.6116C49.7392 32.1502 49.6264 31.7123 49.4662 31.3229C49.3072 30.9451 49.0883 30.6478 48.8338 30.4638C48.505 30.2406 48.1523 30.1295 47.7972 30.1373H47.1438V38.3505H47.7347C48.0882 38.3604 48.4396 38.2614 48.7713 38.0583C49.0363 37.8794 49.2636 37.5745 49.4247 37.182C49.5912 36.7795 49.7044 36.3226 49.7564 35.8418C49.8277 35.2766 49.8658 34.7011 49.8704 34.1236" fill="#3B3B3B"/>
<path d="M57.1264 40.3111V31.3076L55.7166 32.4932C55.6025 32.2698 55.5199 32.0121 55.4058 31.7544C55.3224 31.5373 55.2725 31.2893 55.2607 31.0327C55.2654 30.8824 55.2901 30.7356 55.3333 30.6031C55.3962 30.4391 55.4859 30.3081 55.5925 30.2251L57.1264 28.9193C57.2564 28.8036 57.3915 28.7059 57.5311 28.6272C57.6611 28.5305 57.8029 28.4835 57.9454 28.4897C58.0696 28.4829 58.1929 28.518 58.3086 28.5928C58.3912 28.6372 58.4709 28.6948 58.5468 28.7647V40.3283H57.1264V40.3111Z" fill="#3B3B3B"/>
<path d="M65.8847 34.5368C65.9392 36.1112 65.7119 37.6773 65.2313 39.0385C64.9843 39.5293 64.6753 39.9241 64.3259 40.195C63.9766 40.4659 63.5954 40.6062 63.21 40.6062C62.8242 40.6062 62.4435 40.4659 62.0941 40.195C61.7448 39.9241 61.4357 39.5293 61.1883 39.0385C60.6864 37.6904 60.4473 36.1183 60.5044 34.5368C60.5018 33.6872 60.5576 32.8398 60.67 32.011C60.7572 31.3158 60.9262 30.656 61.1678 30.0694C61.3917 29.5567 61.6819 29.1339 62.0178 28.8322C62.391 28.5433 62.7982 28.3965 63.21 28.4027C63.626 28.379 64.0391 28.5265 64.4123 28.8322C64.7398 29.1045 65.0162 29.5206 65.2108 30.035C65.4444 30.6212 65.5995 31.2831 65.667 31.9766C65.8084 32.8206 65.8717 33.6956 65.8537 34.5711L65.8847 34.5368ZM64.3918 34.5711C64.4006 33.904 64.3729 33.2368 64.3087 32.578C64.2693 32.1274 64.1926 31.6881 64.0806 31.2722C63.9968 30.9915 63.8718 30.7495 63.7179 30.5677C63.5644 30.4158 63.3887 30.3384 63.21 30.3443C63.031 30.3346 62.8544 30.4123 62.7018 30.5677C62.534 30.7327 62.4003 30.9784 62.3185 31.2722C62.2011 31.686 62.121 32.1259 62.0799 32.578C62.0207 33.2377 61.9931 33.9042 61.9968 34.5711C61.9935 35.2267 62.0212 35.8817 62.0799 36.53C62.1222 36.9815 62.2027 37.4211 62.3185 37.8358C62.4036 38.1257 62.5366 38.3698 62.7018 38.5403C62.8544 38.6957 63.031 38.7734 63.21 38.7636C63.387 38.768 63.5619 38.697 63.7179 38.5575C63.8756 38.3821 64.0009 38.1384 64.0806 37.853C64.1959 37.4513 64.2731 37.0223 64.3087 36.5815C64.3712 35.9166 64.3993 35.244 64.3918 34.5711Z" fill="#3B3B3B"/>
<path d="M71.8169 34.5375C71.8714 36.112 71.6441 37.678 71.164 39.0393C70.9417 39.5679 70.6406 39.9916 70.2896 40.2688C69.939 40.5459 69.5507 40.667 69.1632 40.6201C68.7665 40.6786 68.3673 40.567 68.0046 40.2962C67.6414 40.0254 67.3265 39.6044 67.0895 39.0737C66.5901 37.7002 66.3615 36.1023 66.4366 34.5032C66.4341 33.6535 66.4898 32.8062 66.6027 31.9774C66.6874 31.2751 66.8643 30.6123 67.121 30.0358C67.342 29.519 67.633 29.0952 67.971 28.7986C68.3434 28.5063 68.751 28.3593 69.1632 28.3691C69.5792 28.3453 69.9923 28.4929 70.3655 28.7986C70.693 29.0709 70.9694 29.4869 71.164 30.0013C71.3942 30.5904 71.5494 31.2511 71.6198 31.943C71.7293 32.7957 71.7817 33.6658 71.7754 34.5375H71.8169ZM70.3139 34.5375C70.3152 33.8712 70.2909 33.2055 70.2414 32.5444C70.1969 32.0956 70.1202 31.6572 70.0133 31.2385C69.9307 30.9509 69.8015 30.707 69.64 30.534C69.4866 30.3822 69.3104 30.3048 69.1318 30.3107C68.9569 30.3071 68.7846 30.3844 68.6344 30.534C68.4654 30.702 68.3287 30.9463 68.2402 31.2385C68.1186 31.6494 68.0381 32.0904 68.002 32.5444C67.9379 33.2032 67.9102 33.8703 67.919 34.5375C67.9157 35.1931 67.9433 35.8481 68.002 36.4963C68.0348 36.9514 68.1157 37.3933 68.2402 37.8021C68.3287 38.0943 68.4654 38.3386 68.6344 38.5066C68.7846 38.6562 68.9569 38.7336 69.1318 38.73C69.3092 38.7343 69.484 38.6634 69.64 38.5239C69.8015 38.3509 69.9307 38.107 70.0133 37.8194C70.1332 37.4206 70.2104 36.9904 70.2414 36.5479C70.2896 35.8808 70.3139 35.2094 70.3139 34.5375Z" fill="#3B3B3B"/>
</svg>
