<svg width="15" height="14" viewBox="0 0 15 14" fill="none" xmlns="http://www.w3.org/2000/svg">
<path d="M8.39844 1.08203L7.4963 1.51349L7.49944 1.52004L7.50267 1.52655L8.39844 1.08203ZM10.0742 4.45898L9.17845 4.9035L9.41194 5.37402L9.93185 5.4488L10.0742 4.45898ZM13.7812 4.99219L13.9333 4.00377L13.9236 4.00237L13.7812 4.99219ZM14.2383 6.38867L14.9317 7.10924L14.9386 7.10258L14.9454 7.09578L14.2383 6.38867ZM11.5469 8.97852L10.8535 8.25794L10.4713 8.62572L10.5614 9.14842L11.5469 8.97852ZM12.1816 12.6602L13.17 12.5081L13.1686 12.4992L13.1671 12.4902L12.1816 12.6602ZM10.9883 13.5234L10.5248 14.4095L10.5329 14.4138L10.5411 14.4179L10.9883 13.5234ZM7.6875 11.7969L8.151 10.9108L7.68589 10.6675L7.22148 10.9121L7.6875 11.7969ZM4.36133 13.5488L4.80854 14.4433L4.818 14.4385L4.82735 14.4336L4.36133 13.5488ZM3.16797 12.6855L2.18251 12.5156L2.18097 12.5246L2.1796 12.5335L3.16797 12.6855ZM3.80273 9.00391L4.78819 9.17381L4.87779 8.65419L4.49962 8.28672L3.80273 9.00391ZM1.11133 6.38867L0.404221 7.09578L0.409296 7.10085L0.414443 7.10585L1.11133 6.38867ZM1.56836 4.99219L1.42598 4.00233L1.4163 4.00382L1.56836 4.99219ZM5.27539 4.45898L5.41776 5.4488L5.93767 5.37402L6.17116 4.9035L5.27539 4.45898ZM6.95117 1.08203L6.05674 0.634816L6.0554 0.637514L6.95117 1.08203ZM7.50267 1.52655L9.17845 4.9035L10.97 4.01447L9.29421 0.637514L7.50267 1.52655ZM9.93185 5.4488L13.6389 5.982L13.9236 4.00237L10.2166 3.46917L9.93185 5.4488ZM13.6292 5.98056C13.6017 5.97633 13.5675 5.96173 13.5388 5.93648C13.5129 5.9137 13.4976 5.88801 13.4895 5.86384C13.4814 5.83947 13.4777 5.80762 13.4856 5.77079C13.4944 5.72995 13.5145 5.69826 13.5312 5.68157L14.9454 7.09578C16.0182 6.02297 15.3873 4.22751 13.9333 4.00382L13.6292 5.98056ZM13.5449 5.6681L10.8535 8.25794L12.2403 9.69909L14.9317 7.10924L13.5449 5.6681ZM10.5614 9.14842L11.1962 12.8301L13.1671 12.4902L12.5323 8.80861L10.5614 9.14842ZM11.1933 12.8122C11.1716 12.6717 11.3177 12.5701 11.4355 12.629L10.5411 14.4179C11.8776 15.0861 13.3948 13.9689 13.17 12.5081L11.1933 12.8122ZM11.4518 12.6373L8.151 10.9108L7.224 12.683L10.5248 14.4095L11.4518 12.6373ZM7.22148 10.9121L3.8953 12.6641L4.82735 14.4336L8.15352 12.6816L7.22148 10.9121ZM3.91411 12.6544C4.03193 12.5955 4.17796 12.6971 4.15634 12.8376L2.1796 12.5335C1.95485 13.9943 3.47198 15.1115 4.80854 14.4433L3.91411 12.6544ZM4.15343 12.8555L4.78819 9.17381L2.81727 8.834L2.18251 12.5156L4.15343 12.8555ZM4.49962 8.28672L1.80821 5.67149L0.414443 7.10585L3.10585 9.72109L4.49962 8.28672ZM1.81843 5.68157C1.83513 5.69826 1.8552 5.72995 1.86399 5.77079C1.87192 5.80762 1.86818 5.83947 1.86006 5.86384C1.852 5.88801 1.83672 5.9137 1.81081 5.93648C1.78209 5.96173 1.74794 5.97633 1.72042 5.98056L1.4163 4.00382C-0.0377346 4.22751 -0.66859 6.02297 0.404221 7.09578L1.81843 5.68157ZM1.71073 5.982L5.41776 5.4488L5.13302 3.46917L1.42599 4.00237L1.71073 5.982ZM6.17116 4.9035L7.84694 1.52655L6.0554 0.637514L4.37962 4.01447L6.17116 4.9035ZM7.8456 1.52924C7.8333 1.55384 7.80663 1.58566 7.76761 1.60825C7.73262 1.62851 7.69955 1.63475 7.67334 1.63446C7.62505 1.63393 7.53927 1.60332 7.4963 1.51349L9.30057 0.650576C8.66514 -0.678044 6.73659 -0.724869 6.05674 0.634818L7.8456 1.52924Z" fill="black" fill-opacity="0.5"/>
</svg>
